<svg width="1160" height="629" viewBox="0 0 1160 629" fill="none" xmlns="http://www.w3.org/2000/svg">
<path opacity="0.1" d="M1060.18 0L2.30713 267.559L2.46093 628.798L1060.33 361.239L1060.18 0Z" fill="url(#paint0_linear_382_545)"/>
<path opacity="0.2" d="M1060.18 0L3.69116 267.222V316.219L1060.18 48.9964V0Z" fill="url(#paint1_linear_382_545)"/>
<path d="M1160 163.635L886.534 232.783V266.009L1160 196.861V163.635Z" fill="#F2994A" fill-opacity="0.28"/>
<path d="M406.046 348.905L132.734 418.053V451.278L406.046 382.131V348.905Z" fill="#F2C94C" fill-opacity="0.3"/>
<path opacity="0.15" d="M585.383 393.656L51.6787 528.648V629L585.383 494.007V393.656Z" fill="url(#paint2_linear_382_545)"/>
<path opacity="0.07" d="M533.705 382.333L0 517.326V617.678L533.705 482.685V382.333Z" fill="url(#paint3_linear_382_545)"/>
<path opacity="0.15" d="M545.855 424.051L465.415 444.404V477.63L545.855 457.277V424.051Z" fill="white"/>
<path opacity="0.15" d="M446.805 450.268L366.365 470.621V503.847L446.805 483.494V450.268Z" fill="white"/>
<path opacity="0.15" d="M347.754 474.867L267.313 495.22V528.446L347.754 508.093V474.867Z" fill="white" fill-opacity="0.42"/>
<path opacity="0.15" d="M248.703 501.083L168.263 521.437V554.663L248.703 534.309V501.083Z" fill="white"/>
<path opacity="0.15" d="M988.815 135.801L381.898 289.328V300.65L988.815 147.124V135.801Z" fill="white"/>
<path opacity="0.15" d="M988.815 158.648L465.107 291.08V302.402L988.815 169.971V158.648Z" fill="white"/>
<path opacity="0.15" d="M988.815 181.226L543.241 293.911V305.233L988.815 192.548V181.226Z" fill="white"/>
<path opacity="0.15" d="M1134.93 244.105L690.586 356.453V456.805L1134.93 344.457V244.105Z" fill="url(#paint4_linear_382_545)"/>
<path opacity="0.07" d="M1083.25 232.783L638.907 345.131V445.483L1083.25 333.135V232.783Z" fill="url(#paint5_linear_382_545)"/>
<path opacity="0.15" d="M1104.63 275.916L751.493 365.215V376.537L1104.48 287.239L1104.63 275.916Z" fill="white"/>
<path opacity="0.15" d="M1104.63 298.763L821.936 370.269V381.592L1104.63 310.085V298.763Z" fill="white"/>
<path opacity="0.2" d="M945.134 53.5791C945.134 60.9251 954.978 64.3623 966.974 61.3295C978.971 58.2967 988.815 49.8723 988.815 42.5936C988.815 35.2475 978.971 31.8104 966.974 34.8432C954.824 37.876 945.134 46.3004 945.134 53.5791Z" fill="white"/>
<path opacity="0.3" d="M973.896 439.417C973.896 452.761 980.664 461.32 994.198 465.027C1007.73 468.734 1025.88 467.723 1048.65 461.927C1071.41 456.131 1089.56 448.043 1103.09 437.462C1116.63 426.949 1123.39 414.952 1123.39 401.608C1123.39 388.264 1116.63 379.705 1103.09 375.998C1089.56 372.291 1071.41 373.302 1048.65 379.098C1025.88 384.827 1007.73 392.982 994.198 403.563C980.664 414.076 973.896 426.005 973.896 439.417ZM1021.58 427.353C1021.58 420.074 1024.04 414.211 1029.11 409.628C1034.19 405.045 1040.65 401.81 1048.49 399.788C1056.64 397.699 1063.26 397.699 1068.33 399.654C1073.1 401.743 1075.56 406.393 1075.56 413.604C1075.56 420.883 1073.1 426.814 1068.33 431.397C1063.26 435.98 1056.64 439.282 1048.49 441.304C1040.65 443.326 1034.19 443.326 1029.11 441.304C1024.19 439.282 1021.58 434.564 1021.58 427.353ZM891.61 422.231L833.01 437.058L998.044 543.273L1056.64 528.446L891.61 422.231ZM765.49 564.031C765.49 577.375 772.257 585.934 785.792 589.641C799.327 593.348 817.476 592.337 840.239 586.541C863.002 580.812 881.151 572.657 894.686 562.076C908.221 551.563 914.989 539.566 914.989 526.222C914.989 512.878 908.221 504.318 894.686 500.612C881.151 496.905 863.002 497.916 840.239 503.712C817.476 509.441 799.327 517.595 785.792 528.176C772.257 538.69 765.49 550.686 765.49 564.031ZM813.169 551.967C813.169 544.688 815.63 538.825 820.706 534.242C825.781 529.659 832.241 526.424 840.085 524.402C848.237 522.313 854.851 522.313 859.926 524.267C864.694 526.357 867.155 531.007 867.155 538.218C867.155 545.497 864.694 551.428 859.926 556.011C854.851 560.593 848.237 563.896 840.085 565.918C832.241 567.94 825.781 567.94 820.706 565.918C815.784 563.963 813.169 559.246 813.169 551.967Z" fill="url(#paint6_linear_382_545)"/>
<defs>
<linearGradient id="paint0_linear_382_545" x1="325.144" y1="224.291" x2="452.412" y2="514.161" gradientUnits="userSpaceOnUse">
<stop stop-color="white"/>
<stop offset="1" stop-color="white" stop-opacity="0"/>
</linearGradient>
<linearGradient id="paint1_linear_382_545" x1="798.034" y1="-39.4098" x2="700.68" y2="336.937" gradientUnits="userSpaceOnUse">
<stop stop-color="white"/>
<stop offset="1" stop-color="white" stop-opacity="0"/>
</linearGradient>
<linearGradient id="paint2_linear_382_545" x1="268.953" y1="473.71" x2="290.927" y2="560.593" gradientUnits="userSpaceOnUse">
<stop stop-color="white"/>
<stop offset="1" stop-color="white" stop-opacity="0"/>
</linearGradient>
<linearGradient id="paint3_linear_382_545" x1="217.23" y1="462.38" x2="239.205" y2="549.263" gradientUnits="userSpaceOnUse">
<stop stop-color="white"/>
<stop offset="1" stop-color="white" stop-opacity="0"/>
</linearGradient>
<linearGradient id="paint4_linear_382_545" x1="863.201" y1="312.824" x2="885.176" y2="399.707" gradientUnits="userSpaceOnUse">
<stop stop-color="white"/>
<stop offset="1" stop-color="white" stop-opacity="0"/>
</linearGradient>
<linearGradient id="paint5_linear_382_545" x1="811.48" y1="301.492" x2="833.455" y2="388.376" gradientUnits="userSpaceOnUse">
<stop stop-color="white"/>
<stop offset="1" stop-color="white" stop-opacity="0"/>
</linearGradient>
<linearGradient id="paint6_linear_382_545" x1="860.908" y1="431.536" x2="918.744" y2="616.578" gradientUnits="userSpaceOnUse">
<stop stop-color="white" stop-opacity="0.47"/>
<stop offset="1" stop-color="white" stop-opacity="0"/>
</linearGradient>
</defs>
</svg>
