<svg width="1438" height="736" viewBox="0 0 1438 736" fill="none" xmlns="http://www.w3.org/2000/svg">
<g opacity="0.5">
<path opacity="0.2" d="M453.82 447.399C453.82 485.289 521.41 503.228 604.544 487.454C687.913 471.68 755.268 428.145 755.268 390.256C755.268 352.366 687.678 334.427 604.544 350.201C521.175 365.976 453.585 409.51 453.82 447.399Z" fill="url(#paint0_linear_335_515)"/>
<path opacity="0.4" d="M676.844 502.919C593.475 518.694 526.12 500.754 525.885 462.865C525.885 424.975 593.475 381.441 676.609 365.666C759.978 349.892 827.333 367.831 827.333 405.721C827.568 443.61 759.978 487.145 676.844 502.919ZM702.75 394.586L673.783 400.076V409.278C670.957 409.897 668.13 410.515 665.304 411.134C658.004 412.758 651.174 414.459 644.815 416.16V475.855C652.823 475.159 660.359 474.154 667.659 472.917C669.779 472.608 671.663 472.298 673.783 471.912V481.113L702.75 475.623V466.344C716.88 463.096 727.949 459.462 735.956 455.441C746.318 450.183 751.5 444.384 751.5 437.888C751.5 434.718 749.851 432.089 746.79 430.156C743.728 428.223 737.84 427.295 729.362 427.449C739.724 422.655 744.905 417.784 744.905 412.835C744.905 409.587 743.492 407.113 740.431 405.489C737.605 403.788 733.601 402.705 728.42 402.396C723.239 402.087 716.88 402.241 709.815 403.092C707.695 403.324 705.34 403.633 702.985 403.942L702.75 394.586Z" fill="#00CCE8" fill-opacity="0.55"/>
<path opacity="0.4" d="M690.504 431.238L675.667 434.022V420.644C678.022 420.103 680.613 419.484 683.674 418.943C686.736 418.325 689.562 417.783 692.152 417.242C700.16 415.695 706.283 415.077 710.522 415.309C714.761 415.541 716.645 416.855 716.645 419.33C716.645 421.727 714.526 423.892 710.522 425.825C706.518 427.681 699.924 429.459 690.504 431.238Z" fill="#007EC6" fill-opacity="0.37"/>
<path opacity="0.4" d="M675.667 460.39V444.461L694.743 440.827C703.457 439.203 710.051 438.507 714.761 438.894C719.471 439.203 721.826 440.75 721.826 443.611C721.826 446.781 719 449.565 713.348 451.807C707.696 454.05 700.395 456.06 691.21 457.761C688.149 458.38 685.323 458.844 682.732 459.308C680.377 459.694 678.022 460.081 675.667 460.39Z" fill="#007EC6" fill-opacity="0.37"/>
<path opacity="0.3" d="M881.734 1.23113C866.898 4.01485 855.122 10.8195 855.122 16.3869V165.78L720.177 191.375V345.484C720.177 351.052 732.188 353.294 746.789 350.511C761.626 347.727 773.402 340.922 773.402 335.355V201.427L908.347 175.832V6.17996C908.582 0.689849 896.571 -1.62992 881.734 1.23113Z" fill="url(#paint1_linear_335_515)"/>
<path opacity="0.3" d="M808.257 650.147C793.42 652.931 781.645 650.688 781.645 645.121V533.154L646.464 558.748V485.444C646.464 479.876 658.475 473.072 673.077 470.288C687.913 467.504 699.689 469.747 699.689 475.314V528.437L834.634 502.842V634.991C834.869 640.559 822.859 647.363 808.257 650.147Z" fill="url(#paint2_linear_335_515)"/>
<path opacity="0.3" d="M600.776 110.801C585.939 113.585 574.164 120.39 574.164 125.957V380.126C574.164 385.694 586.174 387.936 600.776 385.152C615.613 382.369 627.388 375.564 627.388 369.996V115.827C627.388 110.26 615.377 108.017 600.776 110.801Z" fill="url(#paint3_linear_335_515)"/>
<path d="M751.971 637.311C751.971 652.621 779.289 659.89 812.967 653.472C846.644 647.131 873.963 629.501 873.963 614.19C873.963 598.88 846.644 591.611 812.967 598.029C779.289 604.447 751.971 622 751.971 637.311Z" fill="#007EC6" fill-opacity="0.37"/>
<path opacity="0.3" d="M303.803 238.311C318.64 235.528 330.416 237.77 330.416 243.337V318.807L465.361 293.212V385.926C465.361 391.493 453.35 398.298 438.748 401.082C423.912 403.865 412.136 401.623 412.136 396.055V323.524L277.191 349.119V253.467C277.191 247.9 288.966 241.095 303.803 238.311Z" fill="url(#paint4_linear_335_515)"/>
<path d="M243.985 264.911C243.985 280.067 271.068 287.181 304.274 280.917C337.481 274.577 364.564 257.256 364.564 242.1C364.564 226.944 337.481 219.83 304.274 226.094C271.068 232.357 243.985 249.833 243.985 264.911Z" fill="#1914F3" fill-opacity="0.37"/>
<path opacity="0.3" d="M45.4523 650.92C45.4523 645.353 57.4631 638.548 72.0645 635.764L281.665 596.019V538.411L489.852 498.975C504.689 496.192 516.465 498.434 516.465 504.002C516.465 509.569 504.454 516.374 489.852 519.157L334.889 548.541V606.149L72.3 656.024C57.4631 658.807 45.4523 656.488 45.4523 650.92Z" fill="url(#paint5_linear_335_515)"/>
<path opacity="0.3" d="M551.555 734.819C566.392 732.035 578.167 725.23 578.167 719.663V536.401C578.167 530.834 566.157 528.591 551.555 531.375C536.718 534.159 524.943 540.963 524.943 546.531V729.792C524.943 735.283 536.954 737.602 551.555 734.819Z" fill="url(#paint6_linear_335_515)"/>
<path d="M13.1886 657.57C13.1886 672.881 40.5073 680.149 74.1847 673.731C107.862 667.391 135.181 649.76 135.181 634.45C135.181 619.14 107.862 611.871 74.1847 618.289C40.5073 624.707 13.1886 642.26 13.1886 657.57Z" fill="#1914F3" fill-opacity="0.37"/>
<path opacity="0.3" d="M1317.66 350.046L934.253 422.732V655.946L1317.66 583.26V350.046Z" fill="url(#paint7_linear_335_515)"/>
<path opacity="0.15" d="M1256.9 498.279L1028.46 541.582V550.783L1256.9 507.481V498.279Z" fill="white"/>
<path opacity="0.15" d="M1233.11 521.013L1052.01 555.346V564.548L1233.11 530.215V521.013Z" fill="white"/>
<path d="M1171.17 562.46L1438 511.889V537.948L1171.17 588.519V562.46Z" fill="#007EC6" fill-opacity="0.37"/>
<path opacity="0.2" d="M1042.82 446.007L1102.4 461.473L1142.44 444.616L1194.72 459.462L1215.45 454.513L1138.44 433.249L1099.34 450.106L1056.24 439.589L1042.82 446.007Z" fill="white"/>
<path d="M998.074 445.62C998.074 454.358 1013.62 458.456 1032.69 454.822C1051.77 451.188 1067.31 441.213 1067.31 432.475C1067.31 423.737 1051.77 419.639 1032.69 423.273C1013.62 426.908 998.074 436.883 998.074 445.62Z" fill="#007EC6" fill-opacity="0.37"/>
<path d="M1176.59 462.478C1176.59 471.216 1192.13 475.314 1211.21 471.68C1230.28 468.045 1245.83 458.07 1245.83 449.333C1245.83 440.595 1230.28 436.497 1211.21 440.131C1192.13 443.765 1176.59 453.74 1176.59 462.478Z" fill="#007EC6" fill-opacity="0.37"/>
<path opacity="0.2" d="M0 502.533L364.563 433.404V495.728L0 564.857V502.533Z" fill="url(#paint8_linear_335_515)"/>
<path opacity="0.15" d="M271.303 466.112L161.557 486.913V494.413L271.303 473.613V466.112Z" fill="white"/>
<path opacity="0.15" d="M271.067 481.191L37.4452 525.421V532.999L271.067 488.769V481.191Z" fill="white"/>
<path d="M290.379 468.355C290.379 473.458 299.563 475.932 311.103 473.767C322.643 471.602 331.828 465.648 331.828 460.545C331.828 455.441 322.643 452.967 311.103 455.132C299.563 457.297 290.379 463.251 290.379 468.355Z" fill="#1914F3" fill-opacity="0.37"/>
<path opacity="0.2" d="M935.431 311.925L1299.99 242.796V305.121L935.431 374.25V311.925Z" fill="url(#paint9_linear_335_515)"/>
<path opacity="0.15" d="M1206.73 275.505L1096.99 296.305V303.806L1206.73 283.005V275.505Z" fill="white"/>
<path opacity="0.15" d="M1206.5 290.583L972.876 334.813V342.391L1206.5 298.161V290.583Z" fill="white"/>
<path d="M1225.81 277.747C1225.81 282.851 1234.99 285.325 1246.53 283.16C1258.07 280.995 1267.26 275.041 1267.26 269.937C1267.26 264.834 1258.07 262.359 1246.53 264.525C1235.23 266.69 1225.81 272.566 1225.81 277.747Z" fill="#1914F3" fill-opacity="0.37"/>
</g>
<defs>
<linearGradient id="paint0_linear_335_515" x1="574.257" y1="362.179" x2="581.807" y2="493.13" gradientUnits="userSpaceOnUse">
<stop stop-color="white"/>
<stop offset="1" stop-color="white" stop-opacity="0"/>
</linearGradient>
<linearGradient id="paint1_linear_335_515" x1="614.25" y1="62.0127" x2="667.864" y2="344.913" gradientUnits="userSpaceOnUse">
<stop stop-color="white"/>
<stop offset="1" stop-color="white" stop-opacity="0"/>
</linearGradient>
<linearGradient id="paint2_linear_335_515" x1="893.734" y1="623.811" x2="859.842" y2="444.981" gradientUnits="userSpaceOnUse">
<stop stop-color="white"/>
<stop offset="1" stop-color="white" stop-opacity="0"/>
</linearGradient>
<linearGradient id="paint3_linear_335_515" x1="433.207" y1="152.678" x2="479.71" y2="398.06" gradientUnits="userSpaceOnUse">
<stop stop-color="white"/>
<stop offset="1" stop-color="white" stop-opacity="0"/>
</linearGradient>
<linearGradient id="paint4_linear_335_515" x1="160.917" y1="201.499" x2="205.217" y2="435.249" gradientUnits="userSpaceOnUse">
<stop stop-color="white"/>
<stop offset="1" stop-color="white" stop-opacity="0"/>
</linearGradient>
<linearGradient id="paint5_linear_335_515" x1="-42.1772" y1="577.502" x2="490.095" y2="577.323" gradientUnits="userSpaceOnUse">
<stop stop-color="white"/>
<stop offset="1" stop-color="white" stop-opacity="0"/>
</linearGradient>
<linearGradient id="paint6_linear_335_515" x1="672.519" y1="701.737" x2="638.913" y2="524.66" gradientUnits="userSpaceOnUse">
<stop stop-color="white"/>
<stop offset="1" stop-color="white" stop-opacity="0"/>
</linearGradient>
<linearGradient id="paint7_linear_335_515" x1="893.268" y1="370.544" x2="940.492" y2="619.721" gradientUnits="userSpaceOnUse">
<stop stop-color="white"/>
<stop offset="1" stop-color="white" stop-opacity="0"/>
</linearGradient>
<linearGradient id="paint8_linear_335_515" x1="141.072" y1="475.763" x2="152.481" y2="535.964" gradientUnits="userSpaceOnUse">
<stop stop-color="white"/>
<stop offset="1" stop-color="white" stop-opacity="0"/>
</linearGradient>
<linearGradient id="paint9_linear_335_515" x1="1076.58" y1="285.134" x2="1087.99" y2="345.335" gradientUnits="userSpaceOnUse">
<stop stop-color="white"/>
<stop offset="1" stop-color="white" stop-opacity="0"/>
</linearGradient>
</defs>
</svg>
