<svg width="1440" height="1056" viewBox="0 0 1440 1056" fill="none" xmlns="http://www.w3.org/2000/svg">
<path opacity="0.2" d="M144.706 152.53L204.165 173.984L244.117 150.599L296.29 171.195L316.972 164.33L240.122 134.831L201.109 158.216L158.102 143.627L144.706 152.53Z" fill="white" fill-opacity="0.5"/>
<path d="M289.412 187.635C289.412 199.756 304.923 205.442 323.959 200.4C342.995 195.358 358.506 181.521 358.506 169.399C358.506 157.278 342.995 151.593 323.959 156.635C304.923 161.676 289.412 175.514 289.412 187.635Z" fill="#007EC6" fill-opacity="0.37"/>
<rect x="41.3948" y="462.745" width="14.5898" height="46.2213" fill="#2D7645" fill-opacity="0.42"/>
<path d="M48.6897 457.118L48.6897 519.002" stroke="#2C7545" stroke-opacity="0.5" stroke-linecap="round"/>
<rect x="70.5745" y="457.422" width="14.5898" height="16.2399" fill="#EA1212" fill-opacity="0.31"/>
<path d="M77.8694 455.445L77.8694 477.188" stroke="#EA1212" stroke-opacity="0.31" stroke-linecap="round"/>
<rect x="99.7541" y="457.271" width="14.5898" height="28.7321" fill="#EA1212" fill-opacity="0.31"/>
<path d="M107.049 453.773L107.049 492.241" stroke="#EA1212" stroke-opacity="0.31" stroke-linecap="round"/>
<rect x="128.934" y="454.382" width="14.5898" height="18.7384" fill="#2D7645" fill-opacity="0.42"/>
<path d="M136.229 448.755L136.229 478.861" stroke="#2C7545" stroke-opacity="0.5" stroke-linecap="round"/>
<rect x="158.113" y="422.604" width="14.5898" height="46.2213" fill="#2D7645" fill-opacity="0.42"/>
<path d="M165.408 416.977L165.408 478.861" stroke="#2C7545" stroke-opacity="0.5" stroke-linecap="round"/>
<rect x="187.293" y="392.498" width="14.5898" height="46.2213" fill="#2D7645" fill-opacity="0.42"/>
<path d="M194.588 386.871L194.588 448.755" stroke="#2C7545" stroke-opacity="0.5" stroke-linecap="round"/>
<rect x="216.473" y="365.738" width="14.5898" height="46.2213" fill="#2D7645" fill-opacity="0.42"/>
<path d="M223.768 360.11L223.768 421.994" stroke="#2C7545" stroke-opacity="0.5" stroke-linecap="round"/>
<rect x="245.652" y="365.738" width="14.5898" height="46.2213" fill="#EA1212" fill-opacity="0.31"/>
<path d="M252.947 360.11L252.947 421.994" stroke="#EA1212" stroke-opacity="0.31" stroke-linecap="round"/>
<rect x="358.381" y="367.505" width="14.5898" height="170.551" fill="#EA1212" fill-opacity="0.31"/>
<rect x="360.205" y="798.974" width="14.5898" height="76.937" fill="#EA1212" fill-opacity="0.19"/>
<rect x="389.385" y="869.221" width="14.5898" height="6.69018" fill="#EA1212" fill-opacity="0.19"/>
<rect x="418.564" y="869.221" width="14.5898" height="6.69018" fill="#EA1212" fill-opacity="0.19"/>
<rect x="447.744" y="869.221" width="14.5898" height="6.69018" fill="#2D7645" fill-opacity="0.6"/>
<rect x="476.924" y="859.186" width="14.5898" height="16.7254" fill="#EA1212" fill-opacity="0.19"/>
<rect x="506.103" y="859.186" width="14.5898" height="16.7254" fill="#2D7645" fill-opacity="0.6"/>
<rect x="535.283" y="859.186" width="14.5898" height="16.7254" fill="#EA1212" fill-opacity="0.19"/>
<rect x="564.463" y="869.221" width="14.5898" height="6.69018" fill="#2D7645" fill-opacity="0.6"/>
<rect x="593.642" y="869.221" width="14.5898" height="6.69018" fill="#EA1212" fill-opacity="0.19"/>
<rect x="622.822" y="859.186" width="14.5898" height="16.7254" fill="#2D7645" fill-opacity="0.6"/>
<rect x="652.002" y="872.566" width="14.5898" height="3.34509" fill="#EA1212" fill-opacity="0.19"/>
<rect x="681.181" y="869.221" width="14.5898" height="6.69018" fill="#EA1212" fill-opacity="0.19"/>
<rect x="710.361" y="864.203" width="14.5898" height="11.7078" fill="#2D7645" fill-opacity="0.6"/>
<rect x="739.541" y="864.203" width="14.5898" height="11.7078" fill="#2D7645" fill-opacity="0.6"/>
<rect x="768.72" y="864.203" width="14.5898" height="11.7078" fill="#2D7645" fill-opacity="0.6"/>
<rect x="797.9" y="864.203" width="14.5898" height="11.7078" fill="#EA1212" fill-opacity="0.19"/>
<rect x="827.08" y="859.186" width="14.5898" height="16.7254" fill="#EA1212" fill-opacity="0.19"/>
<rect x="856.259" y="742.107" width="14.5898" height="133.804" fill="#2D7645" fill-opacity="0.6"/>
<rect x="885.439" y="864.203" width="14.5898" height="11.7078" fill="#EA1212" fill-opacity="0.19"/>
<rect x="914.619" y="864.203" width="14.5898" height="11.7078" fill="#EA1212" fill-opacity="0.19"/>
<rect x="943.798" y="864.203" width="14.5898" height="11.7078" fill="#2D7645" fill-opacity="0.6"/>
<rect x="972.978" y="864.203" width="14.5898" height="11.7078" fill="#EA1212" fill-opacity="0.19"/>
<rect x="1002.16" y="847.478" width="14.5898" height="28.4333" fill="#2D7645" fill-opacity="0.6"/>
<rect x="1031.34" y="834.097" width="14.5898" height="41.8136" fill="#2D7645" fill-opacity="0.6"/>
<rect x="1060.52" y="869.221" width="14.5898" height="6.69018" fill="#2D7645" fill-opacity="0.6"/>
<rect x="1089.7" y="869.221" width="14.5898" height="6.69018" fill="#EA1212" fill-opacity="0.19"/>
<rect x="1118.88" y="859.186" width="14.5898" height="16.7254" fill="#2D7645" fill-opacity="0.6"/>
<rect x="1148.06" y="859.186" width="14.5898" height="16.7254" fill="#2D7645" fill-opacity="0.6"/>
<rect x="1177.24" y="869.221" width="14.5898" height="6.69018" fill="#EA1212" fill-opacity="0.19"/>
<rect x="1206.42" y="869.221" width="14.5898" height="6.69018" fill="#2D7645" fill-opacity="0.6"/>
<rect x="1235.59" y="864.203" width="14.5898" height="11.7078" fill="#EA1212" fill-opacity="0.19"/>
<rect x="1264.77" y="859.186" width="14.5898" height="16.7254" fill="#2D7645" fill-opacity="0.6"/>
<rect x="1293.95" y="869.221" width="14.5898" height="6.69018" fill="#2D7645" fill-opacity="0.6"/>
<rect x="1323.13" y="864.203" width="14.5898" height="11.7078" fill="#EA1212" fill-opacity="0.19"/>
<rect x="1352.31" y="864.203" width="14.5898" height="11.7078" fill="#2D7645" fill-opacity="0.6"/>
<rect x="1381.49" y="847.478" width="14.5898" height="28.4333" fill="#EA1212" fill-opacity="0.19"/>
<rect x="1410.67" y="847.478" width="14.5898" height="28.4333" fill="#2D7645" fill-opacity="0.6"/>
<rect x="301.846" y="872.566" width="14.5898" height="3.34509" fill="#EA1212" fill-opacity="0.19"/>
<rect x="243.486" y="847.478" width="14.5898" height="28.4333" fill="#2D7645" fill-opacity="0.6"/>
<rect x="185.127" y="859.186" width="14.5898" height="16.7254" fill="#2D7645" fill-opacity="0.6"/>
<rect x="126.768" y="859.186" width="14.5898" height="16.7254" fill="#EA1212" fill-opacity="0.19"/>
<rect x="68.4083" y="859.186" width="14.5898" height="16.7254" fill="#2D7645" fill-opacity="0.6"/>
<rect x="331.025" y="869.221" width="14.5898" height="6.69018" fill="#2D7645" fill-opacity="0.6"/>
<rect x="272.666" y="840.787" width="14.5898" height="35.1234" fill="#EA1212" fill-opacity="0.19"/>
<rect x="214.307" y="847.478" width="14.5898" height="28.4333" fill="#2D7645" fill-opacity="0.6"/>
<rect x="155.947" y="869.221" width="14.5898" height="6.69018" fill="#2D7645" fill-opacity="0.6"/>
<rect x="97.588" y="872.566" width="14.5898" height="3.34509" fill="#EA1212" fill-opacity="0.19"/>
<rect x="39.2287" y="809.009" width="14.5898" height="66.9018" fill="#EA1212" fill-opacity="0.19"/>
<rect x="10.049" y="809.009" width="14.5898" height="66.9018" fill="#2D7645" fill-opacity="0.6"/>
<path d="M365.676 136.646L365.676 568.163" stroke="#EA1212" stroke-opacity="0.31" stroke-linecap="round"/>
<rect x="362.371" y="521.06" width="14.5898" height="12.9944" fill="#EA1212" fill-opacity="0.31"/>
<path d="M369.666 513.984L369.666 547.435" stroke="#EA1212" stroke-opacity="0.31" stroke-linecap="round"/>
<rect x="391.551" y="520.674" width="14.5898" height="5.01763" fill="#EA1212" fill-opacity="0.31"/>
<path d="M398.846 519.002L398.846 579.213" stroke="#EA1212" stroke-opacity="0.31" stroke-linecap="round"/>
<rect x="420.73" y="520.674" width="14.5898" height="5.01763" fill="#2D7645" fill-opacity="0.42"/>
<path d="M428.025 519.002L428.025 579.213" stroke="#2D7645" stroke-opacity="0.42" stroke-linecap="round"/>
<rect x="449.91" y="519.002" width="14.5898" height="21.7431" fill="#EA1212" fill-opacity="0.31"/>
<path d="M457.205 508.966L457.205 565.833" stroke="#EA1212" stroke-opacity="0.31" stroke-linecap="round"/>
<rect x="475.442" y="487.224" width="14.5898" height="21.7431" fill="#2C7545" fill-opacity="0.5"/>
<path d="M482.737 477.188L482.737 534.055" stroke="#2D7645" stroke-opacity="0.42" stroke-linecap="round"/>
<rect x="500.974" y="455.445" width="14.5898" height="40.1411" fill="#EA1212" fill-opacity="0.31"/>
<path d="M508.269 445.41L508.269 502.276" stroke="#EA1212" stroke-opacity="0.31" stroke-linecap="round"/>
<rect x="526.507" y="440.392" width="14.5898" height="21.7431" fill="#2D7645" fill-opacity="0.42"/>
<path d="M533.802 430.357L533.802 487.223" stroke="#2D7645" stroke-opacity="0.42" stroke-linecap="round"/>
<rect x="552.039" y="405.269" width="14.5898" height="28.4333" fill="#EA1212" fill-opacity="0.31"/>
<path d="M559.334 401.924L559.334 458.79" stroke="#EA1212" stroke-opacity="0.31" stroke-linecap="round"/>
<rect x="577.571" y="430.357" width="14.5898" height="21.7431" fill="#EA1212" fill-opacity="0.31"/>
<path d="M584.866 420.322L584.866 477.188" stroke="#EA1212" stroke-opacity="0.31" stroke-linecap="round"/>
<rect x="603.103" y="455.445" width="14.5898" height="40.1411" fill="#2D7645" fill-opacity="0.42"/>
<path d="M610.398 445.41L610.398 535.727" stroke="#2D7645" stroke-opacity="0.42" stroke-linecap="round"/>
<rect x="628.636" y="519.002" width="14.5898" height="3.34509" fill="#EA1212" fill-opacity="0.31"/>
<path d="M635.93 508.966L635.93 565.833" stroke="#EA1212" stroke-opacity="0.31" stroke-linecap="round"/>
<rect x="654.168" y="519.002" width="14.5898" height="21.7431" fill="#EA1212" fill-opacity="0.31"/>
<path d="M661.463 508.966L661.463 565.833" stroke="#EA1212" stroke-opacity="0.31" stroke-linecap="round"/>
<rect x="679.7" y="519.002" width="14.5898" height="10.0353" fill="#2D7645" fill-opacity="0.42"/>
<path d="M686.995 508.966L686.995 565.833" stroke="#2D7645" stroke-opacity="0.42" stroke-linecap="round"/>
<rect x="705.232" y="478.861" width="14.5898" height="21.7431" fill="#2D7645" fill-opacity="0.42"/>
<path d="M712.527 468.825L712.527 525.692" stroke="#2D7645" stroke-opacity="0.42" stroke-linecap="round"/>
<rect x="734.412" y="453.773" width="14.5898" height="21.7431" fill="#2D7645" fill-opacity="0.42"/>
<path d="M741.707 443.737L741.707 500.604" stroke="#2D7645" stroke-opacity="0.42" stroke-linecap="round"/>
<rect x="763.592" y="425.339" width="14.5898" height="21.7431" fill="#EA1212" fill-opacity="0.31"/>
<path d="M770.886 415.304L770.886 472.171" stroke="#EA1212" stroke-opacity="0.31" stroke-linecap="round"/>
<rect x="792.771" y="379" width="14.5898" height="30.0566" fill="#2D7645" fill-opacity="0.42"/>
<path d="M800.066 365.128L800.066 443.737" stroke="#2D7645" stroke-opacity="0.42" stroke-linecap="round"/>
<rect x="821.951" y="95.8479" width="14.5898" height="269.28" fill="#2D7645" fill-opacity="0.42"/>
<path d="M829.246 33.9639L829.246 385.198" stroke="#2D7645" stroke-opacity="0.42" stroke-linecap="round"/>
<rect x="851.13" y="97.5208" width="14.5898" height="21.7431" fill="#EA1212" fill-opacity="0.31"/>
<path d="M858.425 87.4854L858.425 144.352" stroke="#EA1212" stroke-opacity="0.31" stroke-linecap="round"/>
<rect x="880.31" y="129.299" width="14.5898" height="36.796" fill="#EA1212" fill-opacity="0.31"/>
<path d="M887.605 119.264L887.605 199.546" stroke="#EA1212" stroke-opacity="0.31" stroke-linecap="round"/>
<rect x="909.49" y="115.918" width="14.5898" height="21.7431" fill="#2D7645" fill-opacity="0.42"/>
<path d="M916.785 105.883L916.785 162.75" stroke="#2D7645" stroke-opacity="0.42" stroke-linecap="round"/>
<rect x="938.669" y="77.45" width="14.5898" height="21.7431" fill="#EA1212" fill-opacity="0.31"/>
<path d="M945.964 67.4146L945.964 124.281" stroke="#EA1212" stroke-opacity="0.31" stroke-linecap="round"/>
<rect x="967.849" y="77.45" width="14.5898" height="21.7431" fill="#2D7645" fill-opacity="0.42"/>
<path d="M975.144 67.4146L975.144 124.281" stroke="#2D7645" stroke-opacity="0.42" stroke-linecap="round"/>
<rect x="997.029" y="77.45" width="14.5898" height="56.8665" fill="#2D7645" fill-opacity="0.42"/>
<path d="M1004.32 67.4146L1004.32 124.281" stroke="#2D7645" stroke-opacity="0.42" stroke-linecap="round"/>
<rect x="1026.21" y="135.989" width="14.5898" height="21.7431" fill="#2D7645" fill-opacity="0.42"/>
<path d="M1033.5 125.954L1033.5 182.82" stroke="#2D7645" stroke-opacity="0.42" stroke-linecap="round"/>
<rect x="1055.39" y="135.989" width="14.5898" height="8.36272" fill="#EA1212" fill-opacity="0.31"/>
<path d="M1062.68 125.954L1062.68 182.82" stroke="#EA1212" stroke-opacity="0.31" stroke-linecap="round"/>
<rect x="1084.57" y="90.8303" width="14.5898" height="28.4333" fill="#2D7645" fill-opacity="0.42"/>
<path d="M1091.86 87.4854L1091.86 144.352" stroke="#2D7645" stroke-opacity="0.42" stroke-linecap="round"/>
<rect x="1113.75" y="60.7249" width="14.5898" height="21.7431" fill="#2D7645" fill-opacity="0.42"/>
<path d="M1121.04 0.512939L1121.04 107.556" stroke="#2D7645" stroke-opacity="0.42" stroke-linecap="round"/>
<rect x="1142.93" y="97.5208" width="14.5898" height="21.7431" fill="#EA1212" fill-opacity="0.31"/>
<path d="M1150.22 87.4854L1150.22 144.352" stroke="#EA1212" stroke-opacity="0.31" stroke-linecap="round"/>
<rect x="1172.11" y="119.264" width="14.5898" height="10.0353" fill="#2D7645" fill-opacity="0.42"/>
<path d="M1179.4 109.228L1179.4 166.095" stroke="#2D7645" stroke-opacity="0.42" stroke-linecap="round"/>
<rect x="1201.29" y="97.5208" width="14.5898" height="21.7431" fill="#EA1212" fill-opacity="0.31"/>
<path d="M1208.58 87.4854L1208.58 144.352" stroke="#EA1212" stroke-opacity="0.31" stroke-linecap="round"/>
<rect x="1230.47" y="67.4146" width="14.5898" height="35.1234" fill="#2D7645" fill-opacity="0.42"/>
<path d="M1237.76 57.3796L1237.76 114.246" stroke="#2D7645" stroke-opacity="0.42" stroke-linecap="round"/>
<rect x="1259.65" y="38.9814" width="14.5898" height="35.1234" fill="#2D7645" fill-opacity="0.42"/>
<path d="M1266.94 28.946L1266.94 85.8126" stroke="#2D7645" stroke-opacity="0.42" stroke-linecap="round"/>
<rect x="1288.83" y="72.4324" width="14.5898" height="10.0353" fill="#EA1212" fill-opacity="0.31"/>
<path d="M1296.12 62.397L1296.12 119.263" stroke="#EA1212" stroke-opacity="0.31" stroke-linecap="round"/>
<rect x="1318.01" y="40.6538" width="14.5898" height="35.1234" fill="#2D7645" fill-opacity="0.42"/>
<path d="M1325.3 30.6187L1325.3 87.4852" stroke="#2D7645" stroke-opacity="0.42" stroke-linecap="round"/>
<rect x="1347.18" y="15.5657" width="14.5898" height="35.1234" fill="#EA1212" fill-opacity="0.31"/>
<path d="M1354.48 5.53027L1354.48 62.3968" stroke="#EA1212" stroke-opacity="0.31" stroke-linecap="round"/>
<rect x="1376.36" y="10.5483" width="14.5898" height="35.1234" fill="#2D7645" fill-opacity="0.42"/>
<path d="M1383.66 0.512939L1383.66 57.3794" stroke="#2D7645" stroke-opacity="0.42" stroke-linecap="round"/>
<rect x="274.832" y="359.046" width="14.5898" height="4.99689" fill="#EA1212" fill-opacity="0.31"/>
<path d="M282.127 358.437L282.127 401.924" stroke="#EA1212" stroke-opacity="0.31" stroke-linecap="round"/>
<rect x="304.012" y="359.046" width="14.5898" height="4.99689" fill="#2C7545" fill-opacity="0.5"/>
<path d="M311.307 358.437L311.307 401.924" stroke="#2D7645" stroke-opacity="0.42" stroke-linecap="round"/>
<rect x="12.2151" y="467.153" width="14.5898" height="135.476" fill="#EA1212" fill-opacity="0.31"/>
<path d="M19.51 460.463V468.825" stroke="#EA1212" stroke-opacity="0.31" stroke-linecap="round"/>
<path d="M759.364 511.749V519.021H758.483V512.672H758.441L756.665 513.851V512.956L758.483 511.749H759.364ZM763.828 519.121C763.293 519.121 762.837 518.975 762.461 518.684C762.084 518.39 761.796 517.965 761.598 517.409C761.399 516.85 761.299 516.176 761.299 515.385C761.299 514.599 761.399 513.928 761.598 513.372C761.799 512.813 762.088 512.387 762.464 512.093C762.843 511.797 763.297 511.649 763.828 511.649C764.358 511.649 764.811 511.797 765.188 512.093C765.567 512.387 765.855 512.813 766.054 513.372C766.255 513.928 766.356 514.599 766.356 515.385C766.356 516.176 766.257 516.85 766.058 517.409C765.859 517.965 765.571 518.39 765.195 518.684C764.818 518.975 764.363 519.121 763.828 519.121ZM763.828 518.34C764.358 518.34 764.77 518.084 765.063 517.572C765.357 517.061 765.504 516.332 765.504 515.385C765.504 514.755 765.436 514.219 765.301 513.776C765.169 513.334 764.977 512.996 764.726 512.764C764.478 512.532 764.178 512.416 763.828 512.416C763.302 512.416 762.891 512.675 762.595 513.194C762.3 513.71 762.152 514.44 762.152 515.385C762.152 516.015 762.218 516.55 762.35 516.99C762.483 517.43 762.674 517.765 762.922 517.995C763.173 518.225 763.475 518.34 763.828 518.34ZM770.078 519.121C769.543 519.121 769.087 518.975 768.711 518.684C768.334 518.39 768.046 517.965 767.848 517.409C767.649 516.85 767.549 516.176 767.549 515.385C767.549 514.599 767.649 513.928 767.848 513.372C768.049 512.813 768.338 512.387 768.714 512.093C769.093 511.797 769.547 511.649 770.078 511.649C770.608 511.649 771.061 511.797 771.438 512.093C771.817 512.387 772.105 512.813 772.304 513.372C772.505 513.928 772.606 514.599 772.606 515.385C772.606 516.176 772.507 516.85 772.308 517.409C772.109 517.965 771.821 518.39 771.445 518.684C771.068 518.975 770.613 519.121 770.078 519.121ZM770.078 518.34C770.608 518.34 771.02 518.084 771.313 517.572C771.607 517.061 771.754 516.332 771.754 515.385C771.754 514.755 771.686 514.219 771.551 513.776C771.419 513.334 771.227 512.996 770.976 512.764C770.728 512.532 770.428 512.416 770.078 512.416C769.552 512.416 769.141 512.675 768.845 513.194C768.55 513.71 768.402 514.44 768.402 515.385C768.402 516.015 768.468 516.55 768.6 516.99C768.733 517.43 768.924 517.765 769.172 517.995C769.423 518.225 769.725 518.34 770.078 518.34ZM774.751 517.033L774.737 515.996H774.907L777.294 513.567H778.331L775.788 516.138H775.717L774.751 517.033ZM773.97 519.021V511.749H774.808V519.021H773.97ZM777.436 519.021L775.305 516.322L775.902 515.74L778.501 519.021H777.436Z" fill="#5C6370"/>
<line x1="788.142" y1="515.521" x2="1440.14" y2="515.521" stroke="#DEE3ED" stroke-opacity="0.7" stroke-linecap="round" stroke-dasharray="1 3"/>
<path d="M763.873 537.594C763.385 537.594 762.954 537.508 762.58 537.335C762.209 537.16 761.919 536.92 761.71 536.614C761.502 536.307 761.399 535.956 761.401 535.563C761.399 535.255 761.459 534.971 761.582 534.711C761.706 534.448 761.874 534.229 762.087 534.054C762.302 533.876 762.542 533.764 762.808 533.717V533.674C762.46 533.584 762.183 533.389 761.977 533.088C761.771 532.785 761.669 532.441 761.671 532.055C761.669 531.685 761.762 531.355 761.952 531.064C762.141 530.773 762.402 530.543 762.733 530.375C763.067 530.207 763.447 530.123 763.873 530.123C764.294 530.123 764.671 530.207 765.002 530.375C765.334 530.543 765.594 530.773 765.783 531.064C765.975 531.355 766.072 531.685 766.075 532.055C766.072 532.441 765.967 532.785 765.759 533.088C765.553 533.389 765.279 533.584 764.938 533.674V533.717C765.201 533.764 765.438 533.876 765.649 534.054C765.859 534.229 766.027 534.448 766.153 534.711C766.278 534.971 766.342 535.255 766.345 535.563C766.342 535.956 766.236 536.307 766.025 536.614C765.817 536.92 765.527 537.16 765.155 537.335C764.786 537.508 764.358 537.594 763.873 537.594ZM763.873 536.813C764.202 536.813 764.486 536.76 764.725 536.653C764.964 536.547 765.149 536.397 765.279 536.202C765.409 536.008 765.476 535.781 765.478 535.521C765.476 535.246 765.405 535.003 765.265 534.793C765.125 534.582 764.935 534.416 764.693 534.295C764.454 534.175 764.181 534.114 763.873 534.114C763.563 534.114 763.286 534.175 763.042 534.295C762.801 534.416 762.61 534.582 762.47 534.793C762.333 535.003 762.265 535.246 762.268 535.521C762.265 535.781 762.328 536.008 762.456 536.202C762.586 536.397 762.772 536.547 763.014 536.653C763.255 536.76 763.542 536.813 763.873 536.813ZM763.873 533.361C764.133 533.361 764.364 533.309 764.565 533.205C764.769 533.101 764.929 532.955 765.045 532.768C765.161 532.581 765.22 532.362 765.222 532.111C765.22 531.865 765.162 531.651 765.048 531.469C764.935 531.284 764.777 531.142 764.576 531.043C764.375 530.941 764.14 530.89 763.873 530.89C763.601 530.89 763.363 530.941 763.159 531.043C762.956 531.142 762.798 531.284 762.687 531.469C762.576 531.651 762.521 531.865 762.524 532.111C762.521 532.362 762.577 532.581 762.69 532.768C762.806 532.955 762.966 533.101 763.17 533.205C763.373 533.309 763.608 533.361 763.873 533.361ZM770.078 537.594C769.543 537.594 769.087 537.449 768.711 537.158C768.334 536.864 768.046 536.439 767.848 535.883C767.649 535.324 767.549 534.649 767.549 533.859C767.549 533.073 767.649 532.401 767.848 531.845C768.049 531.286 768.338 530.86 768.714 530.567C769.093 530.271 769.547 530.123 770.078 530.123C770.608 530.123 771.061 530.271 771.438 530.567C771.817 530.86 772.105 531.286 772.304 531.845C772.505 532.401 772.606 533.073 772.606 533.859C772.606 534.649 772.507 535.324 772.308 535.883C772.109 536.439 771.821 536.864 771.445 537.158C771.068 537.449 770.613 537.594 770.078 537.594ZM770.078 536.813C770.608 536.813 771.02 536.557 771.313 536.046C771.607 535.535 771.754 534.806 771.754 533.859C771.754 533.229 771.686 532.693 771.551 532.25C771.419 531.807 771.227 531.47 770.976 531.238C770.728 531.006 770.428 530.89 770.078 530.89C769.552 530.89 769.141 531.149 768.845 531.668C768.55 532.184 768.402 532.914 768.402 533.859C768.402 534.488 768.468 535.023 768.6 535.464C768.733 535.904 768.924 536.239 769.172 536.469C769.423 536.698 769.725 536.813 770.078 536.813ZM774.751 535.506L774.737 534.469H774.907L777.294 532.04H778.331L775.788 534.611H775.717L774.751 535.506ZM773.97 537.495V530.222H774.808V537.495H773.97ZM777.436 537.495L775.305 534.796L775.902 534.214L778.501 537.495H777.436Z" fill="#5C6370"/>
<line x1="788.142" y1="537.995" x2="1440.14" y2="537.995" stroke="#DEE3ED" stroke-opacity="0.7" stroke-linecap="round" stroke-dasharray="1 3"/>
<path d="M763.88 560.068C763.582 560.063 763.283 560.007 762.985 559.898C762.687 559.789 762.415 559.605 762.168 559.347C761.922 559.087 761.725 558.735 761.575 558.293C761.426 557.848 761.352 557.289 761.352 556.616C761.352 555.973 761.412 555.402 761.533 554.905C761.654 554.405 761.829 553.985 762.058 553.644C762.288 553.301 762.565 553.04 762.889 552.863C763.216 552.685 763.584 552.597 763.994 552.597C764.401 552.597 764.763 552.678 765.08 552.842C765.4 553.003 765.66 553.228 765.862 553.516C766.063 553.805 766.193 554.138 766.252 554.514H765.386C765.305 554.187 765.149 553.916 764.917 553.701C764.685 553.486 764.377 553.378 763.994 553.378C763.43 553.378 762.986 553.623 762.662 554.113C762.34 554.603 762.178 555.291 762.176 556.176H762.232C762.365 555.975 762.522 555.803 762.705 555.661C762.889 555.517 763.093 555.406 763.315 555.327C763.538 555.249 763.774 555.21 764.022 555.21C764.439 555.21 764.82 555.314 765.166 555.523C765.511 555.729 765.788 556.014 765.997 556.379C766.205 556.741 766.309 557.156 766.309 557.625C766.309 558.075 766.208 558.487 766.007 558.861C765.806 559.232 765.523 559.528 765.158 559.749C764.796 559.966 764.37 560.073 763.88 560.068ZM763.88 559.287C764.178 559.287 764.446 559.212 764.683 559.063C764.922 558.914 765.11 558.714 765.247 558.463C765.387 558.212 765.457 557.933 765.457 557.625C765.457 557.324 765.389 557.051 765.254 556.805C765.122 556.556 764.938 556.358 764.704 556.212C764.472 556.065 764.207 555.991 763.908 555.991C763.684 555.991 763.474 556.036 763.28 556.126C763.086 556.214 762.915 556.335 762.769 556.489C762.624 556.643 762.511 556.819 762.428 557.018C762.345 557.214 762.303 557.421 762.303 557.639C762.303 557.928 762.371 558.198 762.506 558.449C762.643 558.7 762.83 558.902 763.067 559.056C763.306 559.21 763.577 559.287 763.88 559.287ZM770.078 560.068C769.543 560.068 769.087 559.923 768.711 559.631C768.334 559.338 768.046 558.913 767.848 558.357C767.649 557.798 767.549 557.123 767.549 556.332C767.549 555.546 767.649 554.875 767.848 554.319C768.049 553.76 768.338 553.334 768.714 553.04C769.093 552.745 769.547 552.597 770.078 552.597C770.608 552.597 771.061 552.745 771.438 553.04C771.817 553.334 772.105 553.76 772.304 554.319C772.505 554.875 772.606 555.546 772.606 556.332C772.606 557.123 772.507 557.798 772.308 558.357C772.109 558.913 771.821 559.338 771.445 559.631C771.068 559.923 770.613 560.068 770.078 560.068ZM770.078 559.287C770.608 559.287 771.02 559.031 771.313 558.52C771.607 558.009 771.754 557.279 771.754 556.332C771.754 555.703 771.686 555.166 771.551 554.724C771.419 554.281 771.227 553.944 770.976 553.712C770.728 553.48 770.428 553.364 770.078 553.364C769.552 553.364 769.141 553.623 768.845 554.141C768.55 554.657 768.402 555.388 768.402 556.332C768.402 556.962 768.468 557.497 768.6 557.938C768.733 558.378 768.924 558.713 769.172 558.942C769.423 559.172 769.725 559.287 770.078 559.287ZM774.751 557.98L774.737 556.943H774.907L777.294 554.514H778.331L775.788 557.085H775.717L774.751 557.98ZM773.97 559.969V552.696H774.808V559.969H773.97ZM777.436 559.969L775.305 557.27L775.902 556.688L778.501 559.969H777.436Z" fill="#5C6370"/>
<line x1="788.142" y1="560.469" x2="1440.14" y2="560.469" stroke="#DEE3ED" stroke-opacity="0.7" stroke-linecap="round" stroke-dasharray="1 3"/>
<path d="M761.119 580.951V580.226L764.315 575.17H764.841V576.292H764.486L762.071 580.113V580.17H766.375V580.951H761.119ZM764.542 582.442V580.731V580.393V575.17H765.38V582.442H764.542ZM770.078 582.542C769.543 582.542 769.087 582.396 768.711 582.105C768.334 581.811 768.046 581.387 767.848 580.83C767.649 580.271 767.549 579.597 767.549 578.806C767.549 578.02 767.649 577.349 767.848 576.793C768.049 576.234 768.338 575.808 768.714 575.514C769.093 575.218 769.547 575.07 770.078 575.07C770.608 575.07 771.061 575.218 771.438 575.514C771.817 575.808 772.105 576.234 772.304 576.793C772.505 577.349 772.606 578.02 772.606 578.806C772.606 579.597 772.507 580.271 772.308 580.83C772.109 581.387 771.821 581.811 771.445 582.105C771.068 582.396 770.613 582.542 770.078 582.542ZM770.078 581.761C770.608 581.761 771.02 581.505 771.313 580.994C771.607 580.482 771.754 579.753 771.754 578.806C771.754 578.176 771.686 577.64 771.551 577.197C771.419 576.755 771.227 576.417 770.976 576.185C770.728 575.953 770.428 575.837 770.078 575.837C769.552 575.837 769.141 576.097 768.845 576.615C768.55 577.131 768.402 577.861 768.402 578.806C768.402 579.436 768.468 579.971 768.6 580.411C768.733 580.851 768.924 581.186 769.172 581.416C769.423 581.646 769.725 581.761 770.078 581.761ZM774.751 580.454L774.737 579.417H774.907L777.294 576.988H778.331L775.788 579.559H775.717L774.751 580.454ZM773.97 582.442V575.17H774.808V582.442H773.97ZM777.436 582.442L775.305 579.744L775.902 579.161L778.501 582.442H777.436Z" fill="#5C6370"/>
<line x1="788.142" y1="582.942" x2="1440.14" y2="582.942" stroke="#DEE3ED" stroke-opacity="0.7" stroke-linecap="round" stroke-dasharray="1 3"/>
<path d="M761.651 604.916V604.277L764.051 601.649C764.333 601.341 764.565 601.074 764.747 600.847C764.93 600.617 765.065 600.401 765.152 600.2C765.242 599.997 765.287 599.784 765.287 599.561C765.287 599.305 765.226 599.084 765.103 598.897C764.982 598.71 764.816 598.566 764.605 598.464C764.395 598.362 764.158 598.311 763.895 598.311C763.616 598.311 763.372 598.369 763.164 598.485C762.958 598.599 762.798 598.758 762.684 598.964C762.573 599.17 762.517 599.412 762.517 599.689H761.679C761.679 599.263 761.778 598.889 761.974 598.567C762.171 598.245 762.438 597.994 762.777 597.814C763.117 597.634 763.5 597.544 763.924 597.544C764.35 597.544 764.727 597.634 765.056 597.814C765.385 597.994 765.644 598.236 765.831 598.542C766.018 598.847 766.111 599.187 766.111 599.561C766.111 599.829 766.063 600.09 765.965 600.346C765.871 600.599 765.705 600.882 765.468 601.195C765.234 601.505 764.908 601.883 764.492 602.331L762.858 604.078V604.135H766.239V604.916H761.651ZM770.078 605.016C769.543 605.016 769.087 604.87 768.711 604.579C768.334 604.285 768.046 603.86 767.848 603.304C767.649 602.745 767.549 602.07 767.549 601.28C767.549 600.494 767.649 599.823 767.848 599.266C768.049 598.708 768.338 598.281 768.714 597.988C769.093 597.692 769.547 597.544 770.078 597.544C770.608 597.544 771.061 597.692 771.438 597.988C771.817 598.281 772.105 598.708 772.304 599.266C772.505 599.823 772.606 600.494 772.606 601.28C772.606 602.07 772.507 602.745 772.308 603.304C772.109 603.86 771.821 604.285 771.445 604.579C771.068 604.87 770.613 605.016 770.078 605.016ZM770.078 604.234C770.608 604.234 771.02 603.979 771.313 603.467C771.607 602.956 771.754 602.227 771.754 601.28C771.754 600.65 771.686 600.114 771.551 599.671C771.419 599.228 771.227 598.891 770.976 598.659C770.728 598.427 770.428 598.311 770.078 598.311C769.552 598.311 769.141 598.57 768.845 599.089C768.55 599.605 768.402 600.335 768.402 601.28C768.402 601.91 768.468 602.445 768.6 602.885C768.733 603.325 768.924 603.66 769.172 603.89C769.423 604.119 769.725 604.234 770.078 604.234ZM774.751 602.928L774.737 601.891H774.907L777.294 599.462H778.331L775.788 602.033H775.717L774.751 602.928ZM773.97 604.916V597.643H774.808V604.916H773.97ZM777.436 604.916L775.305 602.217L775.902 601.635L778.501 604.916H777.436Z" fill="#5C6370"/>
<line x1="788.142" y1="605.416" x2="1440.14" y2="605.416" stroke="#DEE3ED" stroke-opacity="0.7" stroke-linecap="round" stroke-dasharray="1 3"/>
<path d="M775.517 623.121C774.982 623.121 774.526 622.975 774.15 622.684C773.774 622.39 773.486 621.965 773.287 621.409C773.088 620.85 772.989 620.176 772.989 619.385C772.989 618.599 773.088 617.928 773.287 617.372C773.488 616.813 773.777 616.387 774.154 616.093C774.532 615.797 774.987 615.649 775.517 615.649C776.047 615.649 776.501 615.797 776.877 616.093C777.256 616.387 777.545 616.813 777.744 617.372C777.945 617.928 778.046 618.599 778.046 619.385C778.046 620.176 777.946 620.85 777.747 621.409C777.548 621.965 777.261 622.39 776.884 622.684C776.508 622.975 776.052 623.121 775.517 623.121ZM775.517 622.34C776.047 622.34 776.459 622.084 776.753 621.572C777.047 621.061 777.193 620.332 777.193 619.385C777.193 618.755 777.126 618.219 776.991 617.776C776.858 617.334 776.667 616.996 776.416 616.764C776.167 616.532 775.868 616.416 775.517 616.416C774.992 616.416 774.581 616.675 774.285 617.194C773.989 617.71 773.841 618.44 773.841 619.385C773.841 620.015 773.907 620.55 774.04 620.99C774.172 621.43 774.363 621.765 774.612 621.995C774.863 622.225 775.164 622.34 775.517 622.34Z" fill="#5C6370"/>
<line x1="788.142" y1="619.521" x2="1440.14" y2="619.521" stroke="#DEE3ED" stroke-opacity="0.7" stroke-linecap="round" stroke-dasharray="1 3"/>
<path d="M792.148 640.749V648.021H791.267V641.672H791.225L789.449 642.851V641.956L791.267 640.749H792.148ZM796.512 648.121C796.096 648.121 795.721 648.038 795.387 647.872C795.053 647.706 794.785 647.479 794.584 647.19C794.383 646.902 794.273 646.572 794.254 646.203H795.106C795.139 646.532 795.288 646.805 795.554 647.02C795.821 647.233 796.141 647.34 796.512 647.34C796.811 647.34 797.076 647.27 797.308 647.13C797.542 646.99 797.726 646.799 797.858 646.555C797.993 646.309 798.061 646.03 798.061 645.72C798.061 645.403 797.991 645.12 797.851 644.872C797.714 644.621 797.525 644.423 797.283 644.278C797.042 644.134 796.766 644.061 796.456 644.058C796.233 644.056 796.005 644.09 795.77 644.161C795.536 644.23 795.343 644.319 795.191 644.428L794.368 644.328L794.808 640.749H798.586V641.53H795.547L795.291 643.675H795.333C795.483 643.556 795.67 643.458 795.895 643.38C796.119 643.302 796.354 643.263 796.598 643.263C797.043 643.263 797.439 643.369 797.787 643.582C798.138 643.793 798.412 644.082 798.611 644.449C798.812 644.816 798.913 645.235 798.913 645.706C798.913 646.17 798.809 646.584 798.601 646.949C798.395 647.311 798.11 647.598 797.748 647.808C797.386 648.017 796.974 648.121 796.512 648.121ZM806.048 640.749H806.929V645.947C806.929 646.412 806.844 646.806 806.673 647.13C806.503 647.454 806.262 647.701 805.952 647.869C805.642 648.037 805.276 648.121 804.855 648.121C804.457 648.121 804.103 648.049 803.793 647.904C803.483 647.757 803.239 647.549 803.062 647.279C802.884 647.009 802.795 646.689 802.795 646.317H803.662C803.662 646.523 803.713 646.703 803.814 646.857C803.919 647.008 804.061 647.126 804.241 647.212C804.421 647.297 804.625 647.34 804.855 647.34C805.108 647.34 805.324 647.286 805.501 647.18C805.679 647.073 805.814 646.917 805.906 646.711C806.001 646.503 806.048 646.248 806.048 645.947V640.749ZM810.185 648.149C809.84 648.149 809.526 648.084 809.244 647.954C808.962 647.821 808.739 647.631 808.573 647.382C808.407 647.131 808.324 646.828 808.324 646.473C808.324 646.161 808.386 645.907 808.509 645.713C808.632 645.517 808.797 645.363 809.003 645.251C809.209 645.14 809.436 645.057 809.684 645.003C809.935 644.946 810.188 644.901 810.441 644.868C810.772 644.825 811.041 644.793 811.247 644.772C811.455 644.748 811.607 644.709 811.702 644.655C811.799 644.6 811.847 644.506 811.847 644.371V644.342C811.847 643.992 811.751 643.72 811.559 643.526C811.37 643.331 811.082 643.234 810.697 643.234C810.296 643.234 809.983 643.322 809.756 643.497C809.528 643.672 809.368 643.859 809.276 644.058L808.481 643.774C808.623 643.443 808.812 643.185 809.049 643C809.288 642.813 809.548 642.683 809.83 642.609C810.114 642.534 810.394 642.496 810.668 642.496C810.843 642.496 811.045 642.517 811.272 642.56C811.501 642.6 811.723 642.684 811.936 642.812C812.151 642.94 812.33 643.133 812.472 643.391C812.614 643.649 812.685 643.994 812.685 644.428V648.021H811.847V647.283H811.805C811.748 647.401 811.653 647.528 811.52 647.663C811.388 647.798 811.211 647.912 810.991 648.007C810.771 648.102 810.502 648.149 810.185 648.149ZM810.313 647.396C810.644 647.396 810.924 647.331 811.151 647.201C811.381 647.071 811.554 646.903 811.67 646.697C811.788 646.491 811.847 646.274 811.847 646.047V645.28C811.812 645.322 811.734 645.362 811.613 645.397C811.494 645.43 811.357 645.46 811.201 645.486C811.047 645.51 810.897 645.531 810.75 645.55C810.605 645.566 810.488 645.581 810.398 645.592C810.18 645.621 809.977 645.667 809.787 645.731C809.6 645.792 809.449 645.886 809.333 646.011C809.219 646.135 809.162 646.303 809.162 646.516C809.162 646.807 809.27 647.027 809.486 647.176C809.703 647.323 809.979 647.396 810.313 647.396ZM815.053 644.74V648.021H814.215V642.567H815.025V643.419H815.096C815.223 643.142 815.418 642.92 815.678 642.751C815.938 642.581 816.275 642.496 816.686 642.496C817.056 642.496 817.379 642.572 817.656 642.723C817.933 642.872 818.148 643.099 818.302 643.405C818.456 643.708 818.533 644.091 818.533 644.555V648.021H817.695V644.612C817.695 644.184 817.584 643.85 817.361 643.611C817.139 643.369 816.833 643.249 816.445 643.249C816.177 643.249 815.938 643.307 815.728 643.423C815.519 643.539 815.355 643.708 815.234 643.93C815.113 644.153 815.053 644.423 815.053 644.74Z" fill="#5C6370"/>
<path d="M915.57 640.749V648.021H914.689V641.672H914.646L912.871 642.851V641.956L914.689 640.749H915.57ZM919.934 648.121C919.517 648.121 919.142 648.038 918.808 647.872C918.474 647.706 918.207 647.479 918.006 647.19C917.804 646.902 917.694 646.572 917.675 646.203H918.528C918.561 646.532 918.71 646.805 918.975 647.02C919.243 647.233 919.562 647.34 919.934 647.34C920.232 647.34 920.497 647.27 920.729 647.13C920.964 646.99 921.147 646.799 921.28 646.555C921.415 646.309 921.482 646.03 921.482 645.72C921.482 645.403 921.412 645.12 921.273 644.872C921.135 644.621 920.946 644.423 920.705 644.278C920.463 644.134 920.187 644.061 919.877 644.058C919.655 644.056 919.426 644.09 919.192 644.161C918.957 644.23 918.764 644.319 918.613 644.428L917.789 644.328L918.229 640.749H922.008V641.53H918.968L918.712 643.675H918.755C918.904 643.556 919.091 643.458 919.316 643.38C919.541 643.302 919.775 643.263 920.019 643.263C920.464 643.263 920.861 643.369 921.209 643.582C921.559 643.793 921.834 644.082 922.033 644.449C922.234 644.816 922.335 645.235 922.335 645.706C922.335 646.17 922.23 646.584 922.022 646.949C921.816 647.311 921.532 647.598 921.17 647.808C920.808 648.017 920.396 648.121 919.934 648.121ZM926.686 648.021V640.749H931.046V641.53H927.566V643.987H930.72V644.769H927.566V648.021H926.686ZM934.328 648.135C933.802 648.135 933.349 648.019 932.968 647.787C932.589 647.553 932.296 647.226 932.09 646.807C931.887 646.385 931.785 645.895 931.785 645.337C931.785 644.778 931.887 644.286 932.09 643.859C932.296 643.431 932.583 643.097 932.95 642.858C933.319 642.617 933.75 642.496 934.242 642.496C934.526 642.496 934.807 642.543 935.084 642.638C935.361 642.733 935.613 642.886 935.84 643.099C936.068 643.31 936.249 643.59 936.384 643.938C936.519 644.286 936.586 644.714 936.586 645.223V645.578H932.382V644.854H935.734C935.734 644.546 935.672 644.271 935.549 644.03C935.428 643.788 935.256 643.598 935.031 643.458C934.808 643.318 934.545 643.249 934.242 643.249C933.909 643.249 933.62 643.331 933.376 643.497C933.134 643.661 932.949 643.874 932.818 644.136C932.688 644.399 932.623 644.681 932.623 644.982V645.465C932.623 645.876 932.694 646.226 932.836 646.512C932.981 646.796 933.181 647.013 933.436 647.162C933.692 647.309 933.989 647.382 934.328 647.382C934.548 647.382 934.747 647.351 934.924 647.29C935.104 647.226 935.259 647.131 935.389 647.006C935.52 646.878 935.62 646.719 935.691 646.53L936.501 646.757C936.416 647.032 936.272 647.273 936.071 647.482C935.87 647.688 935.621 647.849 935.325 647.965C935.03 648.078 934.697 648.135 934.328 648.135ZM937.975 648.021V640.749H938.813V643.433H938.884C938.945 643.339 939.03 643.218 939.139 643.071C939.251 642.922 939.409 642.789 939.615 642.673C939.824 642.555 940.105 642.496 940.46 642.496C940.92 642.496 941.325 642.611 941.675 642.84C942.025 643.07 942.299 643.395 942.495 643.817C942.692 644.238 942.79 644.735 942.79 645.308C942.79 645.886 942.692 646.387 942.495 646.81C942.299 647.232 942.026 647.559 941.678 647.791C941.33 648.02 940.929 648.135 940.475 648.135C940.124 648.135 939.844 648.077 939.633 647.961C939.422 647.843 939.26 647.709 939.146 647.56C939.033 647.408 938.945 647.283 938.884 647.183H938.784V648.021H937.975ZM938.798 645.294C938.798 645.706 938.859 646.069 938.98 646.384C939.1 646.697 939.277 646.942 939.509 647.119C939.741 647.295 940.025 647.382 940.361 647.382C940.711 647.382 941.004 647.29 941.238 647.105C941.475 646.918 941.652 646.667 941.771 646.352C941.892 646.035 941.952 645.682 941.952 645.294C941.952 644.911 941.893 644.565 941.774 644.257C941.658 643.947 941.482 643.702 941.245 643.522C941.011 643.34 940.716 643.249 940.361 643.249C940.02 643.249 939.734 643.335 939.502 643.508C939.27 643.678 939.094 643.917 938.976 644.225C938.858 644.531 938.798 644.887 938.798 645.294Z" fill="#5C6370"/>
<path d="M1039.49 640.749V648.021H1038.61V641.672H1038.57L1036.79 642.851V641.956L1038.61 640.749H1039.49ZM1043.86 648.121C1043.44 648.121 1043.06 648.038 1042.73 647.872C1042.4 647.706 1042.13 647.479 1041.93 647.19C1041.73 646.902 1041.62 646.572 1041.6 646.203H1042.45C1042.48 646.532 1042.63 646.805 1042.9 647.02C1043.16 647.233 1043.48 647.34 1043.86 647.34C1044.15 647.34 1044.42 647.27 1044.65 647.13C1044.89 646.99 1045.07 646.799 1045.2 646.555C1045.34 646.309 1045.4 646.03 1045.4 645.72C1045.4 645.403 1045.33 645.12 1045.19 644.872C1045.06 644.621 1044.87 644.423 1044.63 644.278C1044.38 644.134 1044.11 644.061 1043.8 644.058C1043.58 644.056 1043.35 644.09 1043.11 644.161C1042.88 644.23 1042.69 644.319 1042.53 644.428L1041.71 644.328L1042.15 640.749H1045.93V641.53H1042.89L1042.63 643.675H1042.68C1042.83 643.556 1043.01 643.458 1043.24 643.38C1043.46 643.302 1043.7 643.263 1043.94 643.263C1044.39 643.263 1044.78 643.369 1045.13 643.582C1045.48 643.793 1045.76 644.082 1045.95 644.449C1046.16 644.816 1046.26 645.235 1046.26 645.706C1046.26 646.17 1046.15 646.584 1045.94 646.949C1045.74 647.311 1045.45 647.598 1045.09 647.808C1044.73 648.017 1044.32 648.121 1043.86 648.121ZM1050.61 640.749H1051.66L1054.13 646.786H1054.22L1056.69 640.749H1057.74V648.021H1056.91V642.496H1056.84L1054.57 648.021H1053.77L1051.5 642.496H1051.43V648.021H1050.61V640.749ZM1061 648.149C1060.65 648.149 1060.34 648.084 1060.05 647.954C1059.77 647.821 1059.55 647.631 1059.38 647.382C1059.22 647.131 1059.13 646.828 1059.13 646.473C1059.13 646.161 1059.2 645.907 1059.32 645.713C1059.44 645.517 1059.61 645.363 1059.81 645.251C1060.02 645.14 1060.25 645.057 1060.49 645.003C1060.75 644.946 1061 644.901 1061.25 644.868C1061.58 644.825 1061.85 644.793 1062.06 644.772C1062.27 644.748 1062.42 644.709 1062.51 644.655C1062.61 644.6 1062.66 644.506 1062.66 644.371V644.342C1062.66 643.992 1062.56 643.72 1062.37 643.526C1062.18 643.331 1061.89 643.234 1061.51 643.234C1061.11 643.234 1060.79 643.322 1060.57 643.497C1060.34 643.672 1060.18 643.859 1060.09 644.058L1059.29 643.774C1059.43 643.443 1059.62 643.185 1059.86 643C1060.1 642.813 1060.36 642.683 1060.64 642.609C1060.92 642.534 1061.2 642.496 1061.48 642.496C1061.65 642.496 1061.85 642.517 1062.08 642.56C1062.31 642.6 1062.53 642.684 1062.75 642.812C1062.96 642.94 1063.14 643.133 1063.28 643.391C1063.42 643.649 1063.5 643.994 1063.5 644.428V648.021H1062.66V647.283H1062.61C1062.56 647.401 1062.46 647.528 1062.33 647.663C1062.2 647.798 1062.02 647.912 1061.8 648.007C1061.58 648.102 1061.31 648.149 1061 648.149ZM1061.12 647.396C1061.45 647.396 1061.73 647.331 1061.96 647.201C1062.19 647.071 1062.36 646.903 1062.48 646.697C1062.6 646.491 1062.66 646.274 1062.66 646.047V645.28C1062.62 645.322 1062.54 645.362 1062.42 645.397C1062.3 645.43 1062.17 645.46 1062.01 645.486C1061.86 645.51 1061.71 645.531 1061.56 645.55C1061.42 645.566 1061.3 645.581 1061.21 645.592C1060.99 645.621 1060.79 645.667 1060.6 645.731C1060.41 645.792 1060.26 645.886 1060.14 646.011C1060.03 646.135 1059.97 646.303 1059.97 646.516C1059.97 646.807 1060.08 647.027 1060.3 647.176C1060.51 647.323 1060.79 647.396 1061.12 647.396ZM1065.02 648.021V642.567H1065.83V643.391H1065.89C1065.99 643.121 1066.17 642.902 1066.43 642.734C1066.69 642.566 1066.98 642.482 1067.31 642.482C1067.37 642.482 1067.45 642.483 1067.54 642.485C1067.63 642.488 1067.7 642.491 1067.75 642.496V643.348C1067.72 643.341 1067.66 643.33 1067.56 643.316C1067.46 643.3 1067.35 643.291 1067.24 643.291C1066.98 643.291 1066.74 643.347 1066.53 643.458C1066.32 643.567 1066.16 643.719 1066.04 643.913C1065.92 644.104 1065.86 644.323 1065.86 644.57V648.021H1065.02Z" fill="#5C6370"/>
<path d="M1163.91 640.749V648.021H1163.03V641.672H1162.99L1161.21 642.851V641.956L1163.03 640.749H1163.91ZM1168.28 648.121C1167.86 648.121 1167.49 648.038 1167.15 647.872C1166.82 647.706 1166.55 647.479 1166.35 647.19C1166.15 646.902 1166.04 646.572 1166.02 646.203H1166.87C1166.9 646.532 1167.05 646.805 1167.32 647.02C1167.59 647.233 1167.91 647.34 1168.28 647.34C1168.58 647.34 1168.84 647.27 1169.07 647.13C1169.31 646.99 1169.49 646.799 1169.62 646.555C1169.76 646.309 1169.83 646.03 1169.83 645.72C1169.83 645.403 1169.76 645.12 1169.62 644.872C1169.48 644.621 1169.29 644.423 1169.05 644.278C1168.81 644.134 1168.53 644.061 1168.22 644.058C1168 644.056 1167.77 644.09 1167.53 644.161C1167.3 644.23 1167.11 644.319 1166.96 644.428L1166.13 644.328L1166.57 640.749H1170.35V641.53H1167.31L1167.06 643.675H1167.1C1167.25 643.556 1167.43 643.458 1167.66 643.38C1167.88 643.302 1168.12 643.263 1168.36 643.263C1168.81 643.263 1169.2 643.369 1169.55 643.582C1169.9 643.793 1170.18 644.082 1170.38 644.449C1170.58 644.816 1170.68 645.235 1170.68 645.706C1170.68 646.17 1170.57 646.584 1170.36 646.949C1170.16 647.311 1169.87 647.598 1169.51 647.808C1169.15 648.017 1168.74 648.121 1168.28 648.121ZM1175.33 648.021H1174.4L1177.07 640.749H1177.98L1180.65 648.021H1179.73L1177.56 641.899H1177.5L1175.33 648.021ZM1175.67 645.18H1179.39V645.962H1175.67V645.18ZM1181.67 650.067V642.567H1182.48V643.433H1182.58C1182.64 643.339 1182.73 643.218 1182.84 643.071C1182.95 642.922 1183.11 642.789 1183.31 642.673C1183.52 642.555 1183.8 642.496 1184.16 642.496C1184.62 642.496 1185.02 642.611 1185.37 642.84C1185.72 643.07 1186 643.395 1186.19 643.817C1186.39 644.238 1186.49 644.735 1186.49 645.308C1186.49 645.886 1186.39 646.387 1186.19 646.81C1186 647.232 1185.72 647.559 1185.38 647.791C1185.03 648.02 1184.63 648.135 1184.17 648.135C1183.82 648.135 1183.54 648.077 1183.33 647.961C1183.12 647.843 1182.96 647.709 1182.84 647.56C1182.73 647.408 1182.64 647.283 1182.58 647.183H1182.51V650.067H1181.67ZM1182.5 645.294C1182.5 645.706 1182.56 646.069 1182.68 646.384C1182.8 646.697 1182.97 646.942 1183.21 647.119C1183.44 647.295 1183.72 647.382 1184.06 647.382C1184.41 647.382 1184.7 647.29 1184.94 647.105C1185.17 646.918 1185.35 646.667 1185.47 646.352C1185.59 646.035 1185.65 645.682 1185.65 645.294C1185.65 644.911 1185.59 644.565 1185.47 644.257C1185.36 643.947 1185.18 643.702 1184.94 643.522C1184.71 643.34 1184.41 643.249 1184.06 643.249C1183.72 643.249 1183.43 643.335 1183.2 643.508C1182.97 643.678 1182.79 643.917 1182.67 644.225C1182.56 644.531 1182.5 644.887 1182.5 645.294ZM1187.77 648.021V642.567H1188.58V643.391H1188.63C1188.73 643.121 1188.91 642.902 1189.17 642.734C1189.43 642.566 1189.73 642.482 1190.05 642.482C1190.11 642.482 1190.19 642.483 1190.28 642.485C1190.38 642.488 1190.45 642.491 1190.49 642.496V643.348C1190.47 643.341 1190.4 643.33 1190.3 643.316C1190.2 643.3 1190.09 643.291 1189.98 643.291C1189.72 643.291 1189.48 643.347 1189.27 643.458C1189.07 643.567 1188.9 643.719 1188.78 643.913C1188.66 644.104 1188.6 644.323 1188.6 644.57V648.021H1187.77Z" fill="#5C6370"/>
<path d="M1286.33 640.749V648.021H1285.45V641.672H1285.41L1283.64 642.851V641.956L1285.45 640.749H1286.33ZM1290.7 648.121C1290.28 648.121 1289.91 648.038 1289.57 647.872C1289.24 647.706 1288.97 647.479 1288.77 647.19C1288.57 646.902 1288.46 646.572 1288.44 646.203H1289.29C1289.33 646.532 1289.47 646.805 1289.74 647.02C1290.01 647.233 1290.33 647.34 1290.7 647.34C1291 647.34 1291.26 647.27 1291.49 647.13C1291.73 646.99 1291.91 646.799 1292.04 646.555C1292.18 646.309 1292.25 646.03 1292.25 645.72C1292.25 645.403 1292.18 645.12 1292.04 644.872C1291.9 644.621 1291.71 644.423 1291.47 644.278C1291.23 644.134 1290.95 644.061 1290.64 644.058C1290.42 644.056 1290.19 644.09 1289.96 644.161C1289.72 644.23 1289.53 644.319 1289.38 644.428L1288.55 644.328L1288.99 640.749H1292.77V641.53H1289.73L1289.48 643.675H1289.52C1289.67 643.556 1289.86 643.458 1290.08 643.38C1290.31 643.302 1290.54 643.263 1290.78 643.263C1291.23 643.263 1291.63 643.369 1291.97 643.582C1292.32 643.793 1292.6 644.082 1292.8 644.449C1293 644.816 1293.1 645.235 1293.1 645.706C1293.1 646.17 1292.99 646.584 1292.79 646.949C1292.58 647.311 1292.3 647.598 1291.93 647.808C1291.57 648.017 1291.16 648.121 1290.7 648.121ZM1297.45 640.749H1298.5L1300.97 646.786H1301.06L1303.53 640.749H1304.58V648.021H1303.76V642.496H1303.69L1301.41 648.021H1300.62L1298.34 642.496H1298.27V648.021H1297.45V640.749ZM1307.84 648.149C1307.49 648.149 1307.18 648.084 1306.9 647.954C1306.62 647.821 1306.39 647.631 1306.23 647.382C1306.06 647.131 1305.98 646.828 1305.98 646.473C1305.98 646.161 1306.04 645.907 1306.16 645.713C1306.28 645.517 1306.45 645.363 1306.66 645.251C1306.86 645.14 1307.09 645.057 1307.34 645.003C1307.59 644.946 1307.84 644.901 1308.09 644.868C1308.43 644.825 1308.69 644.793 1308.9 644.772C1309.11 644.748 1309.26 644.709 1309.35 644.655C1309.45 644.6 1309.5 644.506 1309.5 644.371V644.342C1309.5 643.992 1309.4 643.72 1309.21 643.526C1309.02 643.331 1308.74 643.234 1308.35 643.234C1307.95 643.234 1307.64 643.322 1307.41 643.497C1307.18 643.672 1307.02 643.859 1306.93 644.058L1306.13 643.774C1306.28 643.443 1306.46 643.185 1306.7 643C1306.94 642.813 1307.2 642.683 1307.48 642.609C1307.77 642.534 1308.05 642.496 1308.32 642.496C1308.5 642.496 1308.7 642.517 1308.92 642.56C1309.15 642.6 1309.38 642.684 1309.59 642.812C1309.8 642.94 1309.98 643.133 1310.12 643.391C1310.27 643.649 1310.34 643.994 1310.34 644.428V648.021H1309.5V647.283H1309.46C1309.4 647.401 1309.31 647.528 1309.17 647.663C1309.04 647.798 1308.86 647.912 1308.64 648.007C1308.42 648.102 1308.16 648.149 1307.84 648.149ZM1307.97 647.396C1308.3 647.396 1308.58 647.331 1308.8 647.201C1309.03 647.071 1309.21 646.903 1309.32 646.697C1309.44 646.491 1309.5 646.274 1309.5 646.047V645.28C1309.46 645.322 1309.39 645.362 1309.27 645.397C1309.15 645.43 1309.01 645.46 1308.85 645.486C1308.7 645.51 1308.55 645.531 1308.4 645.55C1308.26 645.566 1308.14 645.581 1308.05 645.592C1307.83 645.621 1307.63 645.667 1307.44 645.731C1307.25 645.792 1307.1 645.886 1306.99 646.011C1306.87 646.135 1306.82 646.303 1306.82 646.516C1306.82 646.807 1306.92 647.027 1307.14 647.176C1307.36 647.323 1307.63 647.396 1307.97 647.396ZM1312.21 650.067C1312.07 650.067 1311.94 650.055 1311.83 650.031C1311.72 650.01 1311.64 649.989 1311.6 649.967L1311.81 649.229C1312.02 649.281 1312.2 649.3 1312.35 649.286C1312.51 649.271 1312.65 649.202 1312.77 649.076C1312.89 648.953 1313.01 648.753 1313.11 648.476L1313.26 648.05L1311.25 642.567H1312.16L1313.66 646.913H1313.72L1315.22 642.567H1316.13L1313.82 648.817C1313.71 649.099 1313.58 649.332 1313.43 649.516C1313.28 649.703 1313.1 649.842 1312.89 649.932C1312.69 650.022 1312.47 650.067 1312.21 650.067Z" fill="#5C6370"/>
<path d="M1411.76 640.749V648.021H1410.87V641.672H1410.83L1409.06 642.851V641.956L1410.87 640.749H1411.76ZM1416.12 648.121C1415.7 648.121 1415.33 648.038 1414.99 647.872C1414.66 647.706 1414.39 647.479 1414.19 647.19C1413.99 646.902 1413.88 646.572 1413.86 646.203H1414.71C1414.75 646.532 1414.9 646.805 1415.16 647.02C1415.43 647.233 1415.75 647.34 1416.12 647.34C1416.42 647.34 1416.68 647.27 1416.92 647.13C1417.15 646.99 1417.33 646.799 1417.47 646.555C1417.6 646.309 1417.67 646.03 1417.67 645.72C1417.67 645.403 1417.6 645.12 1417.46 644.872C1417.32 644.621 1417.13 644.423 1416.89 644.278C1416.65 644.134 1416.37 644.061 1416.06 644.058C1415.84 644.056 1415.61 644.09 1415.38 644.161C1415.14 644.23 1414.95 644.319 1414.8 644.428L1413.98 644.328L1414.42 640.749H1418.19V641.53H1415.15L1414.9 643.675H1414.94C1415.09 643.556 1415.28 643.458 1415.5 643.38C1415.73 643.302 1415.96 643.263 1416.21 643.263C1416.65 643.263 1417.05 643.369 1417.39 643.582C1417.75 643.793 1418.02 644.082 1418.22 644.449C1418.42 644.816 1418.52 645.235 1418.52 645.706C1418.52 646.17 1418.42 646.584 1418.21 646.949C1418 647.311 1417.72 647.598 1417.36 647.808C1416.99 648.017 1416.58 648.121 1416.12 648.121ZM1425.66 640.749H1426.54V645.947C1426.54 646.412 1426.45 646.806 1426.28 647.13C1426.11 647.454 1425.87 647.701 1425.56 647.869C1425.25 648.037 1424.88 648.121 1424.46 648.121C1424.06 648.121 1423.71 648.049 1423.4 647.904C1423.09 647.757 1422.85 647.549 1422.67 647.279C1422.49 647.009 1422.4 646.689 1422.4 646.317H1423.27C1423.27 646.523 1423.32 646.703 1423.42 646.857C1423.53 647.008 1423.67 647.126 1423.85 647.212C1424.03 647.297 1424.23 647.34 1424.46 647.34C1424.72 647.34 1424.93 647.286 1425.11 647.18C1425.29 647.073 1425.42 646.917 1425.51 646.711C1425.61 646.503 1425.66 646.248 1425.66 645.947V640.749ZM1431.63 645.791V642.567H1432.46V648.021H1431.63V647.098H1431.57C1431.44 647.375 1431.24 647.611 1430.97 647.805C1430.7 647.997 1430.36 648.092 1429.95 648.092C1429.61 648.092 1429.31 648.018 1429.04 647.869C1428.77 647.717 1428.57 647.49 1428.41 647.187C1428.26 646.881 1428.19 646.497 1428.19 646.033V642.567H1429.03V645.976C1429.03 646.374 1429.14 646.691 1429.36 646.928C1429.58 647.164 1429.87 647.283 1430.22 647.283C1430.43 647.283 1430.64 647.229 1430.85 647.123C1431.07 647.016 1431.25 646.853 1431.4 646.633C1431.55 646.413 1431.63 646.132 1431.63 645.791ZM1434.84 644.74V648.021H1434V642.567H1434.81V643.419H1434.88C1435.01 643.142 1435.2 642.92 1435.46 642.751C1435.72 642.581 1436.06 642.496 1436.47 642.496C1436.84 642.496 1437.16 642.572 1437.44 642.723C1437.72 642.872 1437.93 643.099 1438.09 643.405C1438.24 643.708 1438.32 644.091 1438.32 644.555V648.021H1437.48V644.612C1437.48 644.184 1437.37 643.85 1437.14 643.611C1436.92 643.369 1436.62 643.249 1436.23 643.249C1435.96 643.249 1435.72 643.307 1435.51 643.423C1435.3 643.539 1435.14 643.708 1435.02 643.93C1434.9 644.153 1434.84 644.423 1434.84 644.74Z" fill="#5C6370"/>
<path opacity="0.08" d="M788.642 611.037V619.021H1440.64V530.58L1399.89 542.864L1359.14 546.958L1318.39 542.864L1277.64 561.699L1236.89 555.966L1196.14 568.659L1155.39 570.706L1114.64 582.171L1073.89 572.344L1033.14 590.36L992.392 587.084L951.642 595.683L910.892 603.258L870.142 603.462L829.392 610.014L788.642 611.037Z" fill="url(#paint0_linear_290_545)" fill-opacity="0.5"/>
<path opacity="0.08" d="M788.642 613.979V619.021H1440.64V580.533L1399.89 578.6L1359.14 571.131L1318.39 562.222L1277.64 567.992L1236.89 569.44L1196.14 563.894L1155.39 562.207L1114.64 563.405L1073.89 555.943L1033.14 585.318L992.392 593.507L951.642 601.696H910.892L870.142 609.885L829.392 613.979H788.642Z" fill="url(#paint1_linear_290_545)" fill-opacity="0.5"/>
<g opacity="0.75" filter="url(#filter0_d_290_545)">
<path d="M788.642 611.037L829.392 610.014L870.142 603.462L910.892 603.258L951.642 595.683L992.392 587.084L1033.14 590.36L1073.89 572.344L1114.64 582.171L1155.39 570.706L1196.14 568.659L1236.89 555.966L1277.64 561.699L1318.39 542.864L1359.14 546.958L1399.89 542.864L1440.64 530.58" stroke="#258CF4" stroke-linecap="round" stroke-linejoin="round"/>
</g>
<g opacity="0.75" filter="url(#filter1_d_290_545)">
<path d="M788.642 613.979H829.392L870.142 609.885L910.892 601.696H951.642L992.392 593.507L1033.14 585.318L1073.89 555.943L1114.64 563.405L1155.39 562.207L1196.14 563.894L1236.89 569.44L1277.64 567.992L1318.39 562.222L1359.14 571.131L1399.89 578.6L1440.64 580.533" stroke="#667DF0" stroke-linecap="round" stroke-linejoin="round"/>
</g>
<rect x="1434.63" y="528.943" width="8" height="8" rx="4" fill="#258CF4"/>
<rect x="1434.13" y="528.443" width="9" height="9" rx="4.5" stroke="white" stroke-opacity="0.72"/>
<rect x="1394.07" y="541.226" width="8" height="8" rx="4" fill="#258CF4"/>
<rect x="1393.57" y="540.726" width="9" height="9" rx="4.5" stroke="white" stroke-opacity="0.72"/>
<rect x="1353.51" y="545.73" width="8" height="8" rx="4" fill="#258CF4"/>
<rect x="1353.01" y="545.23" width="9" height="9" rx="4.5" stroke="white" stroke-opacity="0.72"/>
<rect x="1312.95" y="540.817" width="8" height="8" rx="4" fill="#258CF4"/>
<rect x="1312.45" y="540.317" width="9" height="9" rx="4.5" stroke="white" stroke-opacity="0.72"/>
<rect x="1270.88" y="559.651" width="8" height="8" rx="4" fill="#258CF4"/>
<rect x="1270.38" y="559.151" width="9" height="9" rx="4.5" stroke="white" stroke-opacity="0.72"/>
<rect x="1230.32" y="554.328" width="8" height="8" rx="4" fill="#258CF4"/>
<rect x="1229.82" y="553.828" width="9" height="9" rx="4.5" stroke="white" stroke-opacity="0.72"/>
<rect x="1189.76" y="567.021" width="8" height="8" rx="4" fill="#258CF4"/>
<rect x="1189.26" y="566.521" width="9" height="9" rx="4.5" stroke="white" stroke-opacity="0.72"/>
<rect x="1149.2" y="569.069" width="8" height="8" rx="4" fill="#258CF4"/>
<rect x="1148.7" y="568.569" width="9" height="9" rx="4.5" stroke="white" stroke-opacity="0.72"/>
<rect x="1108.63" y="580.124" width="8" height="8" rx="4" fill="#258CF4"/>
<rect x="1108.13" y="579.624" width="9" height="9" rx="4.5" stroke="white" stroke-opacity="0.72"/>
<rect x="1068.07" y="570.297" width="8" height="8" rx="4" fill="#258CF4"/>
<rect x="1067.57" y="569.797" width="9" height="9" rx="4.5" stroke="white" stroke-opacity="0.72"/>
<rect x="1027.51" y="588.722" width="8" height="8" rx="4" fill="#258CF4"/>
<rect x="1027.01" y="588.222" width="9" height="9" rx="4.5" stroke="white" stroke-opacity="0.72"/>
<rect x="986.946" y="585.447" width="8" height="8" rx="4" fill="#258CF4"/>
<rect x="986.446" y="584.947" width="9" height="9" rx="4.5" stroke="white" stroke-opacity="0.72"/>
<rect x="946.384" y="593.635" width="8" height="8" rx="4" fill="#258CF4"/>
<rect x="945.884" y="593.135" width="9" height="9" rx="4.5" stroke="white" stroke-opacity="0.72"/>
<rect x="904.32" y="601.415" width="8" height="8" rx="4" fill="#258CF4"/>
<rect x="903.82" y="600.915" width="9" height="9" rx="4.5" stroke="white" stroke-opacity="0.72"/>
<rect x="865.26" y="601.415" width="8" height="8" rx="4" fill="#258CF4"/>
<rect x="864.76" y="600.915" width="9" height="9" rx="4.5" stroke="white" stroke-opacity="0.72"/>
<rect x="823.195" y="608.376" width="8" height="8" rx="4" fill="#258CF4"/>
<rect x="822.695" y="607.876" width="9" height="9" rx="4.5" stroke="white" stroke-opacity="0.72"/>
<rect x="782.633" y="609.604" width="8" height="8" rx="4" fill="#258CF4"/>
<rect x="782.133" y="609.104" width="9" height="9" rx="4.5" stroke="white" stroke-opacity="0.72"/>
<rect x="1434.63" y="579.305" width="8" height="8" rx="4" fill="#667DF0"/>
<rect x="1434.13" y="578.805" width="9" height="9" rx="4.5" stroke="white" stroke-opacity="0.72"/>
<rect x="1394.07" y="576.848" width="8" height="8" rx="4" fill="#667DF0"/>
<rect x="1393.57" y="576.348" width="9" height="9" rx="4.5" stroke="white" stroke-opacity="0.72"/>
<rect x="1353.51" y="569.478" width="8" height="8" rx="4" fill="#667DF0"/>
<rect x="1353.01" y="568.978" width="9" height="9" rx="4.5" stroke="white" stroke-opacity="0.72"/>
<rect x="1312.95" y="560.47" width="8" height="8" rx="4" fill="#667DF0"/>
<rect x="1312.45" y="559.97" width="9" height="9" rx="4.5" stroke="white" stroke-opacity="0.72"/>
<rect x="1270.88" y="566.203" width="8" height="8" rx="4" fill="#667DF0"/>
<rect x="1270.38" y="565.703" width="9" height="9" rx="4.5" stroke="white" stroke-opacity="0.72"/>
<rect x="1230.32" y="567.84" width="8" height="8" rx="4" fill="#667DF0"/>
<rect x="1229.82" y="567.34" width="9" height="9" rx="4.5" stroke="white" stroke-opacity="0.72"/>
<rect x="1189.76" y="562.517" width="8" height="8" rx="4" fill="#667DF0"/>
<rect x="1189.26" y="562.017" width="9" height="9" rx="4.5" stroke="white" stroke-opacity="0.72"/>
<rect x="1149.2" y="560.88" width="8" height="8" rx="4" fill="#667DF0"/>
<rect x="1148.7" y="560.38" width="9" height="9" rx="4.5" stroke="white" stroke-opacity="0.72"/>
<rect x="1108.63" y="561.289" width="8" height="8" rx="4" fill="#667DF0"/>
<rect x="1108.13" y="560.789" width="9" height="9" rx="4.5" stroke="white" stroke-opacity="0.72"/>
<rect x="1068.07" y="554.328" width="8" height="8" rx="4" fill="#667DF0"/>
<rect x="1067.57" y="553.828" width="9" height="9" rx="4.5" stroke="white" stroke-opacity="0.72"/>
<rect x="1027.51" y="583.809" width="8" height="8" rx="4" fill="#667DF0"/>
<rect x="1027.01" y="583.309" width="9" height="9" rx="4.5" stroke="white" stroke-opacity="0.72"/>
<rect x="986.946" y="591.998" width="8" height="8" rx="4" fill="#667DF0"/>
<rect x="986.446" y="591.498" width="9" height="9" rx="4.5" stroke="white" stroke-opacity="0.72"/>
<rect x="946.384" y="599.777" width="8" height="8" rx="4" fill="#667DF0"/>
<rect x="945.884" y="599.277" width="9" height="9" rx="4.5" stroke="white" stroke-opacity="0.72"/>
<rect x="904.32" y="600.187" width="8" height="8" rx="4" fill="#667DF0"/>
<rect x="903.82" y="599.687" width="9" height="9" rx="4.5" stroke="white" stroke-opacity="0.72"/>
<rect x="865.26" y="607.966" width="8" height="8" rx="4" fill="#667DF0"/>
<rect x="864.76" y="607.466" width="9" height="9" rx="4.5" stroke="white" stroke-opacity="0.72"/>
<rect x="823.195" y="612.47" width="8" height="8" rx="4" fill="#667DF0"/>
<rect x="822.695" y="611.97" width="9" height="9" rx="4.5" stroke="white" stroke-opacity="0.72"/>
<rect x="782.633" y="612.47" width="8" height="8" rx="4" fill="#667DF0"/>
<rect x="782.133" y="611.97" width="9" height="9" rx="4.5" stroke="white" stroke-opacity="0.72"/>
<rect x="770.642" y="680.021" width="12" height="12" rx="4" fill="#258CF4"/>
<path d="M791.699 690.021V681.294H794.75C795.358 681.294 795.859 681.399 796.254 681.609C796.649 681.817 796.943 682.097 797.136 682.449C797.33 682.798 797.426 683.186 797.426 683.612C797.426 683.987 797.359 684.297 797.226 684.541C797.095 684.786 796.922 684.979 796.706 685.121C796.493 685.263 796.261 685.368 796.011 685.436V685.521C796.279 685.538 796.547 685.632 796.817 685.803C797.087 685.973 797.313 686.217 797.494 686.536C797.676 686.854 797.767 687.243 797.767 687.703C797.767 688.141 797.668 688.534 797.469 688.884C797.27 689.233 796.956 689.51 796.527 689.715C796.098 689.919 795.54 690.021 794.852 690.021H791.699ZM792.756 689.084H794.852C795.543 689.084 796.033 688.95 796.323 688.683C796.615 688.413 796.761 688.087 796.761 687.703C796.761 687.408 796.686 687.135 796.536 686.885C796.385 686.632 796.171 686.43 795.892 686.28C795.614 686.126 795.284 686.05 794.904 686.05H792.756V689.084ZM792.756 685.129H794.716C795.034 685.129 795.321 685.067 795.577 684.942C795.835 684.817 796.04 684.641 796.19 684.413C796.344 684.186 796.421 683.919 796.421 683.612C796.421 683.229 796.287 682.903 796.02 682.636C795.753 682.367 795.33 682.232 794.75 682.232H792.756V685.129ZM802.112 690.158C801.481 690.158 800.937 690.019 800.48 689.74C800.025 689.459 799.674 689.067 799.427 688.564C799.183 688.058 799.06 687.47 799.06 686.8C799.06 686.129 799.183 685.538 799.427 685.027C799.674 684.513 800.018 684.112 800.458 683.825C800.901 683.536 801.418 683.391 802.009 683.391C802.35 683.391 802.687 683.447 803.019 683.561C803.352 683.675 803.654 683.859 803.927 684.115C804.2 684.368 804.417 684.703 804.579 685.121C804.741 685.538 804.822 686.053 804.822 686.663V687.09H799.776V686.22H803.799C803.799 685.851 803.725 685.521 803.578 685.232C803.433 684.942 803.225 684.713 802.955 684.546C802.688 684.378 802.373 684.294 802.009 684.294C801.609 684.294 801.262 684.394 800.97 684.592C800.68 684.788 800.457 685.044 800.301 685.359C800.144 685.675 800.066 686.013 800.066 686.374V686.953C800.066 687.447 800.151 687.867 800.322 688.21C800.495 688.551 800.735 688.811 801.042 688.99C801.349 689.166 801.705 689.254 802.112 689.254C802.376 689.254 802.614 689.217 802.828 689.144C803.043 689.067 803.23 688.953 803.386 688.803C803.542 688.649 803.663 688.459 803.748 688.232L804.72 688.504C804.617 688.834 804.445 689.124 804.204 689.374C803.962 689.621 803.664 689.814 803.309 689.953C802.954 690.09 802.555 690.158 802.112 690.158ZM807.357 686.084V690.021H806.352V681.294H807.357V684.499H807.443C807.596 684.161 807.826 683.892 808.133 683.693C808.443 683.492 808.855 683.391 809.369 683.391C809.815 683.391 810.205 683.48 810.541 683.659C810.876 683.835 811.136 684.107 811.32 684.473C811.508 684.837 811.602 685.3 811.602 685.862V690.021H810.596V685.93C810.596 685.411 810.461 685.009 810.191 684.724C809.924 684.438 809.553 684.294 809.079 684.294C808.749 684.294 808.454 684.364 808.193 684.503C807.934 684.642 807.73 684.845 807.579 685.112C807.431 685.379 807.357 685.703 807.357 686.084ZM815.368 690.175C814.953 690.175 814.576 690.097 814.238 689.94C813.9 689.781 813.632 689.553 813.433 689.254C813.234 688.953 813.135 688.59 813.135 688.163C813.135 687.788 813.209 687.484 813.356 687.251C813.504 687.016 813.701 686.831 813.949 686.697C814.196 686.564 814.469 686.465 814.767 686.399C815.068 686.331 815.37 686.277 815.674 686.237C816.072 686.186 816.395 686.148 816.642 686.122C816.892 686.094 817.074 686.047 817.187 685.982C817.304 685.916 817.362 685.803 817.362 685.641V685.607C817.362 685.186 817.247 684.859 817.017 684.626C816.79 684.394 816.444 684.277 815.981 684.277C815.501 684.277 815.125 684.382 814.852 684.592C814.579 684.803 814.388 685.027 814.277 685.266L813.322 684.925C813.493 684.527 813.72 684.217 814.004 683.996C814.291 683.771 814.603 683.615 814.942 683.527C815.282 683.436 815.618 683.391 815.947 683.391C816.157 683.391 816.399 683.416 816.672 683.467C816.947 683.516 817.213 683.617 817.469 683.77C817.727 683.923 817.942 684.155 818.112 684.465C818.282 684.774 818.368 685.189 818.368 685.709V690.021H817.362V689.135H817.311C817.243 689.277 817.129 689.429 816.97 689.591C816.811 689.753 816.599 689.891 816.335 690.004C816.071 690.118 815.748 690.175 815.368 690.175ZM815.521 689.271C815.919 689.271 816.254 689.193 816.527 689.037C816.802 688.881 817.01 688.679 817.149 688.432C817.291 688.185 817.362 687.925 817.362 687.652V686.732C817.319 686.783 817.226 686.83 817.081 686.872C816.939 686.912 816.774 686.947 816.586 686.979C816.402 687.007 816.221 687.033 816.045 687.055C815.872 687.075 815.731 687.092 815.623 687.107C815.362 687.141 815.118 687.196 814.89 687.273C814.666 687.347 814.484 687.459 814.345 687.609C814.209 687.757 814.14 687.959 814.14 688.215C814.14 688.564 814.27 688.828 814.528 689.007C814.79 689.183 815.12 689.271 815.521 689.271ZM821.209 686.084V690.021H820.203V683.476H821.175V684.499H821.26C821.413 684.166 821.646 683.899 821.959 683.697C822.271 683.493 822.675 683.391 823.169 683.391C823.612 683.391 824 683.482 824.332 683.663C824.665 683.842 824.923 684.115 825.108 684.482C825.293 684.845 825.385 685.305 825.385 685.862V690.021H824.379V685.93C824.379 685.416 824.246 685.016 823.979 684.729C823.712 684.439 823.345 684.294 822.879 684.294C822.558 684.294 822.271 684.364 822.019 684.503C821.769 684.642 821.571 684.845 821.426 685.112C821.281 685.379 821.209 685.703 821.209 686.084ZM829.882 690.158C829.268 690.158 828.74 690.013 828.297 689.723C827.853 689.433 827.513 689.034 827.274 688.526C827.035 688.017 826.916 687.436 826.916 686.783C826.916 686.118 827.038 685.531 827.282 685.023C827.53 684.511 827.873 684.112 828.314 683.825C828.757 683.536 829.274 683.391 829.865 683.391C830.325 683.391 830.74 683.476 831.109 683.646C831.478 683.817 831.781 684.055 832.017 684.362C832.253 684.669 832.399 685.027 832.456 685.436H831.45C831.373 685.138 831.203 684.874 830.939 684.644C830.677 684.411 830.325 684.294 829.882 684.294C829.49 684.294 829.146 684.396 828.851 684.601C828.558 684.803 828.329 685.088 828.165 685.457C828.003 685.824 827.922 686.254 827.922 686.749C827.922 687.254 828.001 687.695 828.16 688.07C828.322 688.445 828.549 688.736 828.842 688.943C829.138 689.151 829.484 689.254 829.882 689.254C830.143 689.254 830.38 689.209 830.594 689.118C830.807 689.027 830.987 688.896 831.135 688.726C831.282 688.555 831.388 688.351 831.45 688.112H832.456C832.399 688.499 832.258 688.847 832.034 689.156C831.812 689.463 831.518 689.707 831.152 689.889C830.788 690.068 830.365 690.158 829.882 690.158ZM836.67 690.158C836.04 690.158 835.495 690.019 835.038 689.74C834.584 689.459 834.233 689.067 833.986 688.564C833.741 688.058 833.619 687.47 833.619 686.8C833.619 686.129 833.741 685.538 833.986 685.027C834.233 684.513 834.576 684.112 835.017 683.825C835.46 683.536 835.977 683.391 836.568 683.391C836.909 683.391 837.245 683.447 837.578 683.561C837.91 683.675 838.213 683.859 838.486 684.115C838.758 684.368 838.976 684.703 839.138 685.121C839.299 685.538 839.38 686.053 839.38 686.663V687.09H834.335V686.22H838.358C838.358 685.851 838.284 685.521 838.136 685.232C837.991 684.942 837.784 684.713 837.514 684.546C837.247 684.378 836.932 684.294 836.568 684.294C836.167 684.294 835.821 684.394 835.528 684.592C835.238 684.788 835.015 685.044 834.859 685.359C834.703 685.675 834.625 686.013 834.625 686.374V686.953C834.625 687.447 834.71 687.867 834.88 688.21C835.054 688.551 835.294 688.811 835.601 688.99C835.907 689.166 836.264 689.254 836.67 689.254C836.934 689.254 837.173 689.217 837.386 689.144C837.602 689.067 837.788 688.953 837.944 688.803C838.101 688.649 838.221 688.459 838.307 688.232L839.278 688.504C839.176 688.834 839.004 689.124 838.763 689.374C838.521 689.621 838.223 689.814 837.868 689.953C837.513 690.09 837.113 690.158 836.67 690.158Z" fill="#5C6370"/>
<rect x="864.642" y="680.021" width="12" height="12" rx="4" fill="#3316C6"/>
<path d="M888.392 690.021H885.699V681.294H888.511C889.358 681.294 890.082 681.469 890.685 681.818C891.287 682.165 891.749 682.663 892.07 683.314C892.391 683.962 892.551 684.737 892.551 685.641C892.551 686.55 892.389 687.332 892.065 687.989C891.742 688.642 891.27 689.145 890.651 689.497C890.031 689.847 889.279 690.021 888.392 690.021ZM886.756 689.084H888.324C889.046 689.084 889.644 688.945 890.118 688.666C890.592 688.388 890.946 687.992 891.179 687.477C891.412 686.963 891.529 686.351 891.529 685.641C891.529 684.936 891.413 684.33 891.183 683.821C890.953 683.31 890.609 682.918 890.152 682.645C889.695 682.369 889.125 682.232 888.443 682.232H886.756V689.084ZM894.188 690.021V683.476H895.159V684.465H895.227C895.347 684.141 895.563 683.878 895.875 683.676C896.188 683.474 896.54 683.374 896.932 683.374C897.006 683.374 897.098 683.375 897.209 683.378C897.32 683.381 897.404 683.385 897.46 683.391V684.413C897.426 684.405 897.348 684.392 897.226 684.375C897.107 684.355 896.98 684.345 896.847 684.345C896.529 684.345 896.244 684.412 895.994 684.546C895.747 684.676 895.551 684.858 895.406 685.091C895.264 685.321 895.193 685.584 895.193 685.879V690.021H894.188ZM898.652 690.021V683.476H899.658V690.021H898.652ZM899.164 682.385C898.968 682.385 898.799 682.318 898.657 682.185C898.518 682.051 898.448 681.891 898.448 681.703C898.448 681.516 898.518 681.355 898.657 681.222C898.799 681.088 898.968 681.021 899.164 681.021C899.36 681.021 899.527 681.088 899.667 681.222C899.809 681.355 899.88 681.516 899.88 681.703C899.88 681.891 899.809 682.051 899.667 682.185C899.527 682.318 899.36 682.385 899.164 682.385ZM901.636 690.021V681.294H902.642V684.516H902.727C902.801 684.402 902.904 684.257 903.034 684.081C903.168 683.902 903.358 683.743 903.605 683.604C903.855 683.462 904.193 683.391 904.619 683.391C905.171 683.391 905.656 683.528 906.077 683.804C906.497 684.08 906.825 684.47 907.061 684.976C907.297 685.482 907.415 686.078 907.415 686.766C907.415 687.459 907.297 688.06 907.061 688.568C906.825 689.074 906.499 689.466 906.081 689.744C905.663 690.02 905.182 690.158 904.636 690.158C904.216 690.158 903.879 690.088 903.627 689.949C903.374 689.807 903.179 689.646 903.043 689.467C902.906 689.286 902.801 689.135 902.727 689.016H902.608V690.021H901.636ZM902.625 686.749C902.625 687.243 902.698 687.679 902.842 688.057C902.987 688.432 903.199 688.726 903.477 688.939C903.756 689.149 904.097 689.254 904.5 689.254C904.921 689.254 905.271 689.144 905.553 688.922C905.837 688.697 906.05 688.396 906.192 688.019C906.337 687.638 906.409 687.215 906.409 686.749C906.409 686.288 906.338 685.874 906.196 685.504C906.057 685.132 905.845 684.838 905.561 684.622C905.28 684.403 904.926 684.294 904.5 684.294C904.091 684.294 903.747 684.398 903.469 684.605C903.19 684.81 902.98 685.097 902.838 685.466C902.696 685.832 902.625 686.26 902.625 686.749ZM909.09 690.021V681.294H910.095V684.516H910.181C910.254 684.402 910.357 684.257 910.487 684.081C910.621 683.902 910.811 683.743 911.058 683.604C911.308 683.462 911.646 683.391 912.073 683.391C912.624 683.391 913.109 683.528 913.53 683.804C913.95 684.08 914.279 684.47 914.514 684.976C914.75 685.482 914.868 686.078 914.868 686.766C914.868 687.459 914.75 688.06 914.514 688.568C914.279 689.074 913.952 689.466 913.534 689.744C913.117 690.02 912.635 690.158 912.09 690.158C911.669 690.158 911.332 690.088 911.08 689.949C910.827 689.807 910.632 689.646 910.496 689.467C910.359 689.286 910.254 689.135 910.181 689.016H910.061V690.021H909.09ZM910.078 686.749C910.078 687.243 910.151 687.679 910.296 688.057C910.44 688.432 910.652 688.726 910.931 688.939C911.209 689.149 911.55 689.254 911.953 689.254C912.374 689.254 912.725 689.144 913.006 688.922C913.29 688.697 913.503 688.396 913.645 688.019C913.79 687.638 913.862 687.215 913.862 686.749C913.862 686.288 913.791 685.874 913.649 685.504C913.51 685.132 913.298 684.838 913.014 684.622C912.733 684.403 912.379 684.294 911.953 684.294C911.544 684.294 911.2 684.398 910.922 684.605C910.644 684.81 910.433 685.097 910.291 685.466C910.149 685.832 910.078 686.26 910.078 686.749ZM916.543 690.021V681.294H917.548V684.516H917.634C917.707 684.402 917.81 684.257 917.94 684.081C918.074 683.902 918.264 683.743 918.511 683.604C918.761 683.462 919.1 683.391 919.526 683.391C920.077 683.391 920.563 683.528 920.983 683.804C921.404 684.08 921.732 684.47 921.967 684.976C922.203 685.482 922.321 686.078 922.321 686.766C922.321 687.459 922.203 688.06 921.967 688.568C921.732 689.074 921.405 689.466 920.987 689.744C920.57 690.02 920.088 690.158 919.543 690.158C919.122 690.158 918.786 690.088 918.533 689.949C918.28 689.807 918.085 689.646 917.949 689.467C917.813 689.286 917.707 689.135 917.634 689.016H917.514V690.021H916.543ZM917.531 686.749C917.531 687.243 917.604 687.679 917.749 688.057C917.894 688.432 918.105 688.726 918.384 688.939C918.662 689.149 919.003 689.254 919.406 689.254C919.827 689.254 920.178 689.144 920.459 688.922C920.743 688.697 920.956 688.396 921.098 688.019C921.243 687.638 921.315 687.215 921.315 686.749C921.315 686.288 921.244 685.874 921.102 685.504C920.963 685.132 920.752 684.838 920.467 684.622C920.186 684.403 919.832 684.294 919.406 684.294C918.997 684.294 918.654 684.398 918.375 684.605C918.097 684.81 917.886 685.097 917.744 685.466C917.602 685.832 917.531 686.26 917.531 686.749ZM924.865 681.294V690.021H923.859V681.294H924.865ZM929.451 690.158C928.821 690.158 928.277 690.019 927.819 689.74C927.365 689.459 927.014 689.067 926.767 688.564C926.522 688.058 926.4 687.47 926.4 686.8C926.4 686.129 926.522 685.538 926.767 685.027C927.014 684.513 927.358 684.112 927.798 683.825C928.241 683.536 928.758 683.391 929.349 683.391C929.69 683.391 930.027 683.447 930.359 683.561C930.692 683.675 930.994 683.859 931.267 684.115C931.54 684.368 931.757 684.703 931.919 685.121C932.081 685.538 932.162 686.053 932.162 686.663V687.09H927.116V686.22H931.139C931.139 685.851 931.065 685.521 930.917 685.232C930.772 684.942 930.565 684.713 930.295 684.546C930.028 684.378 929.713 684.294 929.349 684.294C928.949 684.294 928.602 684.394 928.309 684.592C928.02 684.788 927.797 685.044 927.64 685.359C927.484 685.675 927.406 686.013 927.406 686.374V686.953C927.406 687.447 927.491 687.867 927.662 688.21C927.835 688.551 928.075 688.811 928.382 688.99C928.689 689.166 929.045 689.254 929.451 689.254C929.716 689.254 929.954 689.217 930.167 689.144C930.383 689.067 930.569 688.953 930.726 688.803C930.882 688.649 931.003 688.459 931.088 688.232L932.059 688.504C931.957 688.834 931.785 689.124 931.544 689.374C931.302 689.621 931.004 689.814 930.649 689.953C930.294 690.09 929.895 690.158 929.451 690.158Z" fill="#5C6370"/>
<defs>
<filter id="filter0_d_290_545" x="772.142" y="522.08" width="685" height="113.457" filterUnits="userSpaceOnUse" color-interpolation-filters="sRGB">
<feFlood flood-opacity="0" result="BackgroundImageFix"/>
<feColorMatrix in="SourceAlpha" type="matrix" values="0 0 0 0 0 0 0 0 0 0 0 0 0 0 0 0 0 0 127 0" result="hardAlpha"/>
<feOffset dy="8"/>
<feGaussianBlur stdDeviation="8"/>
<feColorMatrix type="matrix" values="0 0 0 0 0.317647 0 0 0 0 0.643137 0 0 0 0 0.964706 0 0 0 0.48 0"/>
<feBlend mode="normal" in2="BackgroundImageFix" result="effect1_dropShadow_290_545"/>
<feBlend mode="normal" in="SourceGraphic" in2="effect1_dropShadow_290_545" result="shape"/>
</filter>
<filter id="filter1_d_290_545" x="772.142" y="547.443" width="685" height="91.0355" filterUnits="userSpaceOnUse" color-interpolation-filters="sRGB">
<feFlood flood-opacity="0" result="BackgroundImageFix"/>
<feColorMatrix in="SourceAlpha" type="matrix" values="0 0 0 0 0 0 0 0 0 0 0 0 0 0 0 0 0 0 127 0" result="hardAlpha"/>
<feOffset dy="8"/>
<feGaussianBlur stdDeviation="8"/>
<feColorMatrix type="matrix" values="0 0 0 0 0.4 0 0 0 0 0.490196 0 0 0 0 0.941176 0 0 0 0.48 0"/>
<feBlend mode="normal" in2="BackgroundImageFix" result="effect1_dropShadow_290_545"/>
<feBlend mode="normal" in="SourceGraphic" in2="effect1_dropShadow_290_545" result="shape"/>
</filter>
<linearGradient id="paint0_linear_290_545" x1="1074.08" y1="548.391" x2="1076.6" y2="605.023" gradientUnits="userSpaceOnUse">
<stop stop-color="#52A6FA"/>
<stop offset="1" stop-color="#52A6FA" stop-opacity="0"/>
</linearGradient>
<linearGradient id="paint1_linear_290_545" x1="1114.64" y1="555.943" x2="1116.12" y2="594.531" gradientUnits="userSpaceOnUse">
<stop stop-color="#667DF0"/>
<stop offset="1" stop-color="#667DF0" stop-opacity="0"/>
</linearGradient>
</defs>
</svg>
