<svg width="666" height="540" viewBox="0 0 666 540" fill="none" xmlns="http://www.w3.org/2000/svg">
<rect opacity="0.2" x="65.9737" y="83.3364" width="46.1277" height="407.909" rx="13.2667" fill="#6D4DFF"/>
<rect x="65.9737" y="207.61" width="46.1277" height="283.636" rx="13.2667" fill="url(#paint0_linear_15_97)"/>
<rect x="65.9737" y="311.415" width="46.1277" height="179.831" rx="13.2667" fill="url(#paint1_linear_15_97)"/>
<rect opacity="0.2" x="342.74" y="78.9502" width="46.1277" height="412.296" rx="13.2667" fill="#6D4DFF"/>
<rect x="342.74" y="185.679" width="46.1277" height="305.567" rx="13.2667" fill="url(#paint2_linear_15_97)"/>
<rect x="342.74" y="296.794" width="46.1277" height="194.451" rx="13.2667" fill="url(#paint3_linear_15_97)"/>
<rect opacity="0.2" x="158.229" y="10.2341" width="46.1277" height="481.011" rx="13.2667" fill="#6D4DFF"/>
<rect x="158.229" y="140.356" width="46.1277" height="350.89" rx="13.2667" fill="url(#paint4_linear_15_97)"/>
<rect x="158.229" y="269.016" width="46.1277" height="222.23" rx="13.2667" fill="url(#paint5_linear_15_97)"/>
<rect opacity="0.2" x="434.995" width="46.1277" height="491.246" rx="13.2667" fill="#6D4DFF"/>
<rect x="434.995" y="105.267" width="46.1277" height="385.979" rx="13.2667" fill="url(#paint6_linear_15_97)"/>
<rect x="434.995" y="247.085" width="46.1277" height="244.161" rx="13.2667" fill="url(#paint7_linear_15_97)"/>
<rect opacity="0.2" x="250.484" y="32.165" width="46.1277" height="459.081" rx="13.2667" fill="#6D4DFF"/>
<rect x="250.484" y="269.016" width="46.1277" height="222.23" rx="13.2667" fill="url(#paint8_linear_15_97)"/>
<rect x="250.484" y="350.89" width="46.1277" height="140.356" rx="13.2667" fill="url(#paint9_linear_15_97)"/>
<rect opacity="0.2" x="527.25" y="78.9502" width="46.1277" height="412.296" rx="13.2667" fill="#6D4DFF"/>
<rect x="527.25" y="337.731" width="46.1277" height="153.514" rx="13.2667" fill="url(#paint10_linear_15_97)"/>
<rect x="527.25" y="393.289" width="46.1277" height="97.9567" rx="13.2667" fill="url(#paint11_linear_15_97)"/>
<rect opacity="0.2" x="619.506" y="154.976" width="46.1277" height="336.269" rx="13.2667" fill="#6D4DFF"/>
<rect x="619.506" y="207.61" width="46.1277" height="283.636" rx="13.2667" fill="url(#paint12_linear_15_97)"/>
<rect x="619.506" y="311.415" width="46.1277" height="179.831" rx="13.2667" fill="url(#paint13_linear_15_97)"/>
<path opacity="0.5" d="M62.7055 533.204C62.7055 535.057 64.0724 536.308 66.0802 536.308C68.2501 536.308 69.5474 535.026 69.5474 532.818V524.918H67.8177V532.81C67.8177 534.084 67.1999 534.764 66.0647 534.764C65.0994 534.764 64.4276 534.131 64.4044 533.204H62.7055ZM74.2658 534.88C73.37 534.88 72.7831 534.416 72.7831 533.706C72.7831 533.011 73.3468 532.571 74.343 532.501L76.343 532.378V533.019C76.343 534.077 75.4318 534.88 74.2658 534.88ZM73.8024 536.2C74.8681 536.2 75.8952 535.629 76.3662 534.725H76.4048V536.061H78.0033V530.463C78.0033 528.833 76.7446 527.791 74.7754 527.791C72.7676 527.791 71.5166 528.872 71.424 530.339H72.9993C73.146 529.613 73.7484 529.15 74.7136 529.15C75.733 529.15 76.343 529.69 76.343 530.594V531.219L74.119 531.351C72.1885 531.459 71.0996 532.331 71.0996 533.752C71.0996 535.212 72.2116 536.2 73.8024 536.2ZM79.625 536.061H81.293V531.328C81.293 530.069 82.0498 529.235 83.2236 529.235C84.3819 529.235 84.9534 529.907 84.9534 531.127V536.061H86.6291V530.802C86.6291 528.941 85.602 527.798 83.8105 527.798C82.5595 527.798 81.6946 528.37 81.2544 529.297H81.2158V527.937H79.625V536.061Z" fill="white"/>
<path opacity="0.5" d="M440.924 536.061V524.918H438.916L435.317 533.714H435.256L431.649 524.918H429.649V536.061H431.225V527.86H431.279L434.646 535.976H435.927L439.287 527.86H439.341V536.061H440.924ZM445.403 534.88C444.507 534.88 443.92 534.416 443.92 533.706C443.92 533.011 444.484 532.571 445.48 532.501L447.48 532.378V533.019C447.48 534.077 446.569 534.88 445.403 534.88ZM444.939 536.2C446.005 536.2 447.032 535.629 447.503 534.725H447.542V536.061H449.14V530.463C449.14 528.833 447.881 527.791 445.912 527.791C443.905 527.791 442.654 528.872 442.561 530.339H444.136C444.283 529.613 444.885 529.15 445.851 529.15C446.87 529.15 447.48 529.69 447.48 530.594V531.219L445.256 531.351C443.325 531.459 442.237 532.331 442.237 533.752C442.237 535.212 443.349 536.2 444.939 536.2ZM451.565 539.088C453.256 539.088 454.052 538.455 454.747 536.486L457.797 527.937H456.036L453.974 534.548H453.951L451.889 527.937H450.082L453.017 536.069C453.017 536.077 452.87 536.556 452.87 536.571C452.615 537.405 452.206 537.729 451.426 537.729C451.287 537.729 451.009 537.729 450.885 537.698V539.05C451.009 539.073 451.434 539.088 451.565 539.088Z" fill="white"/>
<path opacity="0.5" d="M157.236 536.061V531.397H162.024V529.938H157.236V526.408H162.464V524.918H155.507V536.061H157.236ZM166.889 529.134C168.055 529.134 168.843 530.007 168.882 531.25H164.82C164.905 530.022 165.723 529.134 166.889 529.134ZM168.874 533.675C168.65 534.386 167.947 534.864 166.997 534.864C165.661 534.864 164.812 533.93 164.812 532.517V532.416H170.55V531.845C170.55 529.382 169.144 527.791 166.889 527.791C164.596 527.791 163.129 529.49 163.129 532.038C163.129 534.602 164.573 536.216 166.959 536.216C168.82 536.216 170.225 535.158 170.457 533.675H168.874ZM178.735 527.937H176.99L174.951 534.432H174.92L172.882 527.937H171.106L174.032 536.061H175.824L178.735 527.937Z" fill="white"/>
<path opacity="0.5" d="M257.654 536.061V524.918H255.646L252.048 533.714H251.986L248.38 524.918H246.38V536.061H247.955V527.86H248.009L251.376 535.976H252.658L256.017 527.86H256.071V536.061H257.654ZM262.133 534.88C261.237 534.88 260.65 534.416 260.65 533.706C260.65 533.011 261.214 532.571 262.21 532.501L264.21 532.378V533.019C264.21 534.077 263.299 534.88 262.133 534.88ZM261.67 536.2C262.735 536.2 263.762 535.629 264.233 534.725H264.272V536.061H265.871V530.463C265.871 528.833 264.612 527.791 262.643 527.791C260.635 527.791 259.384 528.872 259.291 530.339H260.867C261.013 529.613 261.616 529.15 262.581 529.15C263.6 529.15 264.21 529.69 264.21 530.594V531.219L261.986 531.351C260.056 531.459 258.967 532.331 258.967 533.752C258.967 535.212 260.079 536.2 261.67 536.2ZM267.492 536.061H269.16V531.196C269.16 530.046 269.824 529.327 270.898 529.327C271.222 529.327 271.516 529.366 271.647 529.42V527.868C271.523 527.845 271.315 527.806 271.075 527.806C270.118 527.806 269.392 528.37 269.122 529.32H269.083V527.937H267.492V536.061Z" fill="white"/>
<path opacity="0.5" d="M522.456 533.204C522.456 535.057 523.823 536.308 525.83 536.308C528 536.308 529.298 535.026 529.298 532.818V524.918H527.568V532.81C527.568 534.084 526.95 534.764 525.815 534.764C524.85 534.764 524.178 534.131 524.155 533.204H522.456ZM538.14 527.937H536.472V532.671C536.472 533.938 535.746 534.772 534.541 534.772C533.39 534.772 532.804 534.108 532.804 532.872V527.937H531.136V533.196C531.136 535.057 532.217 536.208 533.985 536.208C535.228 536.208 536.055 535.66 536.503 534.687H536.541V536.061H538.14V527.937ZM539.792 536.061H541.46V531.328C541.46 530.069 542.217 529.235 543.391 529.235C544.549 529.235 545.121 529.907 545.121 531.127V536.061H546.796V530.802C546.796 528.941 545.769 527.798 543.978 527.798C542.727 527.798 541.862 528.37 541.422 529.297H541.383V527.937H539.792V536.061Z" fill="white"/>
<path opacity="0.5" d="M347.245 536.061H349.076L345.052 524.918H343.183L339.16 536.061H340.959L341.979 533.05H346.226L347.245 536.061ZM344.079 526.771H344.126L345.786 531.66H342.419L344.079 526.771ZM354.334 527.806C353.161 527.806 352.226 528.401 351.747 529.335H351.717V527.937H350.103V538.749H351.771V534.725H351.809C352.273 535.629 353.199 536.2 354.365 536.2C356.404 536.2 357.755 534.571 357.755 531.999C357.755 529.428 356.396 527.806 354.334 527.806ZM353.894 534.787C352.612 534.787 351.763 533.691 351.763 531.999C351.763 530.324 352.62 529.212 353.894 529.212C355.215 529.212 356.041 530.3 356.041 531.999C356.041 533.706 355.215 534.787 353.894 534.787ZM359.045 536.061H360.713V531.196C360.713 530.046 361.377 529.327 362.45 529.327C362.775 529.327 363.068 529.366 363.2 529.42V527.868C363.076 527.845 362.867 527.806 362.628 527.806C361.671 527.806 360.945 528.37 360.674 529.32H360.636V527.937H359.045V536.061Z" fill="white"/>
<path opacity="0.5" d="M613.462 533.204C613.462 535.057 614.829 536.308 616.837 536.308C619.007 536.308 620.304 535.026 620.304 532.818V524.918H618.575V532.81C618.575 534.084 617.957 534.764 616.822 534.764C615.856 534.764 615.184 534.131 615.161 533.204H613.462ZM629.146 527.937H627.478V532.671C627.478 533.938 626.752 534.772 625.548 534.772C624.397 534.772 623.81 534.108 623.81 532.872V527.937H622.142V533.196C622.142 535.057 623.223 536.208 624.992 536.208C626.235 536.208 627.061 535.66 627.509 534.687H627.548V536.061H629.146V527.937ZM630.861 536.061H632.529V524.918H630.861V536.061ZM635.046 539.088C636.737 539.088 637.533 538.455 638.228 536.486L641.278 527.937H639.517L637.455 534.548H637.432L635.37 527.937H633.563L636.498 536.069C636.498 536.077 636.351 536.556 636.351 536.571C636.096 537.405 635.687 537.729 634.907 537.729C634.768 537.729 634.49 537.729 634.367 537.698V539.05C634.49 539.073 634.915 539.088 635.046 539.088Z" fill="white"/>
<path opacity="0.5" d="M7.12869 458.613H8.83107V447.396H7.11314L4.15924 449.495V451.205L7.08982 449.122H7.12869V458.613ZM15.6561 458.823C18.3458 458.823 19.9238 456.561 19.9238 452.985C19.9238 449.433 18.338 447.186 15.6561 447.186C12.9821 447.186 11.373 449.441 11.373 452.993C11.373 456.569 12.9665 458.823 15.6561 458.823ZM15.6561 457.362C14.0548 457.362 13.1376 455.698 13.1376 452.993C13.1376 450.327 14.0704 448.648 15.6561 448.648C17.2419 448.648 18.167 450.319 18.167 452.993C18.167 455.706 17.2575 457.362 15.6561 457.362ZM23.2042 453.941H23.1886V447.396H21.5095V458.613H23.1886V455.675L23.8882 454.983L26.6633 458.613H28.6145L25.0931 453.957L28.4823 450.436H26.5079L23.2042 453.941Z" fill="white"/>
<path opacity="0.5" d="M2.92807 333.938V333.953H4.57604V333.93C4.57604 332.764 5.50108 331.878 6.72928 331.878C7.89529 331.878 8.79701 332.671 8.79701 333.666C8.79701 334.544 8.43944 335.135 7.07131 336.557L3.02135 340.685V341.867H10.6937V340.398H5.36893V340.359L8.17514 337.537C9.81533 335.858 10.5149 334.886 10.5149 333.58C10.5149 331.8 8.92139 330.44 6.78369 330.44C4.55272 330.44 2.92807 331.917 2.92807 333.938ZM16.3295 342.077C19.0191 342.077 20.5971 339.815 20.5971 336.239C20.5971 332.686 19.0113 330.44 16.3295 330.44C13.6554 330.44 12.0463 332.694 12.0463 336.247C12.0463 339.822 13.6399 342.077 16.3295 342.077ZM16.3295 340.615C14.7281 340.615 13.8109 338.952 13.8109 336.247C13.8109 333.58 14.7437 331.901 16.3295 331.901C17.9153 331.901 18.8403 333.572 18.8403 336.247C18.8403 338.959 17.9308 340.615 16.3295 340.615ZM23.8775 337.195H23.8619V330.65H22.1829V341.867H23.8619V338.928L24.5615 338.237L27.3367 341.867H29.2878L25.7664 337.21L29.1556 333.689H27.1812L23.8775 337.195Z" fill="white"/>
<path opacity="0.5" d="M2.30119 275.565V275.58H3.94916V275.557C3.94916 274.391 4.8742 273.505 6.1024 273.505C7.26842 273.505 8.17014 274.297 8.17014 275.292C8.17014 276.171 7.81256 276.762 6.44444 278.184L2.39447 282.312V283.493H10.0669V282.024H4.74205V281.985L7.54826 279.164C9.18846 277.485 9.88807 276.513 9.88807 275.207C9.88807 273.427 8.29451 272.066 6.15682 272.066C3.92584 272.066 2.30119 273.543 2.30119 275.565ZM15.6326 283.703C18.0502 283.703 19.7448 282.11 19.7448 279.809C19.7448 277.632 18.1979 276.054 16.0446 276.054C14.9486 276.054 14.0313 276.482 13.5416 277.189H13.5027L13.8137 273.746H19.0918V272.276H12.4144L11.8237 278.619H13.4172C13.8525 277.881 14.6921 277.438 15.6637 277.438C17.063 277.438 18.0424 278.448 18.0424 279.855C18.0424 281.262 17.063 282.25 15.6482 282.25C14.3967 282.25 13.4405 281.488 13.3162 280.376H11.6526C11.7537 282.335 13.3939 283.703 15.6326 283.703ZM22.8775 278.822H22.8619V272.276H21.1829V283.493H22.8619V280.555L23.5615 279.863L26.3367 283.493H28.2878L24.7664 278.837L28.1556 275.316H26.1812L22.8775 278.822Z" fill="white"/>
<path opacity="0.5" d="M5.04244 220.044H6.44166C7.91861 220.044 8.83588 220.79 8.83588 222.003C8.83588 223.099 7.85643 223.876 6.4883 223.876C5.07354 223.876 4.18737 223.138 4.07854 222.065H2.40725C2.51608 224.001 4.07076 225.33 6.4883 225.33C8.82811 225.33 10.6082 223.985 10.6082 222.026C10.6082 220.456 9.51994 219.422 7.83311 219.306V219.274C9.22455 219.026 10.1418 218.023 10.1418 216.624C10.1418 214.898 8.5949 213.693 6.47276 213.693C4.24955 213.693 2.76483 214.96 2.63268 216.927H4.27287C4.37393 215.823 5.18236 215.123 6.39502 215.123C7.72428 215.123 8.43944 215.815 8.43944 216.857C8.43944 217.914 7.60768 218.676 6.39502 218.676H5.04244V220.044ZM16.3295 225.33C19.0191 225.33 20.5971 223.068 20.5971 219.492C20.5971 215.94 19.0113 213.693 16.3295 213.693C13.6554 213.693 12.0463 215.947 12.0463 219.5C12.0463 223.076 13.6399 225.33 16.3295 225.33ZM16.3295 223.869C14.7281 223.869 13.8109 222.205 13.8109 219.5C13.8109 216.834 14.7437 215.155 16.3295 215.155C17.9153 215.155 18.8403 216.826 18.8403 219.5C18.8403 222.213 17.9308 223.869 16.3295 223.869ZM23.8775 220.448H23.8619V213.903H22.1829V225.12H23.8619V222.182L24.5615 221.49L27.3367 225.12H29.2878L25.7664 220.464L29.1556 216.942H27.1812L23.8775 220.448Z" fill="white"/>
<path opacity="0.5" d="M5.41557 161.671H6.81479C8.29174 161.671 9.20901 162.417 9.20901 163.629C9.20901 164.725 8.22955 165.503 6.86143 165.503C5.44666 165.503 4.56049 164.764 4.45166 163.692H2.78037C2.8892 165.627 4.44389 166.956 6.86143 166.956C9.20123 166.956 10.9813 165.612 10.9813 163.653C10.9813 162.083 9.89307 161.049 8.20623 160.932V160.901C9.59768 160.652 10.5149 159.649 10.5149 158.25C10.5149 156.525 8.96803 155.32 6.84588 155.32C4.62268 155.32 3.13795 156.587 3.0058 158.553H4.646C4.74705 157.45 5.55549 156.75 6.76815 156.75C8.0974 156.75 8.81256 157.442 8.81256 158.483C8.81256 159.541 7.9808 160.302 6.76815 160.302H5.41557V161.671ZM16.6326 166.956C19.0502 166.956 20.7448 165.363 20.7448 163.062C20.7448 160.885 19.1979 159.307 17.0446 159.307C15.9486 159.307 15.0313 159.735 14.5416 160.442H14.5027L14.8137 156.999H20.0918V155.53H13.4144L12.8237 161.873H14.4172C14.8525 161.134 15.6921 160.691 16.6637 160.691C18.063 160.691 19.0424 161.702 19.0424 163.109C19.0424 164.516 18.063 165.503 16.6482 165.503C15.3967 165.503 14.4405 164.741 14.3162 163.629H12.6526C12.7537 165.588 14.3939 166.956 16.6326 166.956ZM23.8775 162.075H23.8619V155.53H22.1829V166.747H23.8619V163.808L24.5615 163.116L27.3367 166.747H29.2878L25.7664 162.09L29.1556 158.569H27.1812L23.8775 162.075Z" fill="white"/>
<path opacity="0.5" d="M7.68541 108.373H9.3567V106.158H10.8958V104.696H9.3567V97.1562H6.83811C4.31174 100.81 3.0369 102.823 2.07299 104.634V106.158H7.68541V108.373ZM3.69764 104.681C4.59158 103.056 5.7265 101.307 7.66986 98.501H7.70096V104.72H3.69764V104.681ZM16.3295 108.583C19.0191 108.583 20.5971 106.321 20.5971 102.745C20.5971 99.1929 19.0113 96.9463 16.3295 96.9463C13.6554 96.9463 12.0463 99.2006 12.0463 102.753C12.0463 106.329 13.6399 108.583 16.3295 108.583ZM16.3295 107.122C14.7281 107.122 13.8109 105.458 13.8109 102.753C13.8109 100.087 14.7437 98.4077 16.3295 98.4077C17.9153 98.4077 18.8403 100.079 18.8403 102.753C18.8403 105.466 17.9308 107.122 16.3295 107.122ZM23.8775 103.701H23.8619V97.1562H22.1829V108.373H23.8619V105.435L24.5615 104.743L27.3367 108.373H29.2878L25.7664 103.717L29.1556 100.196H27.1812L23.8775 103.701Z" fill="white"/>
<path opacity="0.5" d="M8.05854 50H9.72983V47.7846H11.269V46.3232H9.72983V38.7829H7.21123C4.68486 42.4364 3.41002 44.4498 2.44611 46.261V47.7846H8.05854V50ZM4.07076 46.3076C4.96471 44.683 6.09963 42.9339 8.04299 40.1277H8.07408V46.3465H4.07076V46.3076ZM16.6326 50.2099C19.0502 50.2099 20.7448 48.6163 20.7448 46.3154C20.7448 44.1388 19.1979 42.5608 17.0446 42.5608C15.9486 42.5608 15.0313 42.9884 14.5416 43.6957H14.5027L14.8137 40.2521H20.0918V38.7829H13.4144L12.8237 45.1261H14.4172C14.8525 44.3876 15.6921 43.9445 16.6637 43.9445C18.0629 43.9445 19.0424 44.955 19.0424 46.362C19.0424 47.769 18.0629 48.7563 16.6482 48.7563C15.3967 48.7563 14.4405 47.9945 14.3162 46.8829H12.6526C12.7537 48.8418 14.3939 50.2099 16.6326 50.2099ZM23.8775 45.3282H23.8619V38.7829H22.1829V50H23.8619V47.0616L24.5615 46.3698L27.3367 50H29.2878L25.7664 45.3437L29.1556 41.8223H27.1812L23.8775 45.3282Z" fill="white"/>
<path opacity="0.5" d="M11.0113 518.052V517.018C13.2889 516.831 14.6026 515.642 14.6026 513.753C14.6026 512.136 13.6621 511.164 11.7342 510.682L11.0113 510.519V507.044C12.0452 507.176 12.7526 507.868 12.7837 508.747H14.4083C14.3617 507.029 13.0402 505.801 11.0113 505.63V504.549H9.94635V505.63C7.83975 505.824 6.55713 507.005 6.55713 508.778C6.55713 510.286 7.51327 511.328 9.25452 511.763L9.94635 511.942V515.618C8.77256 515.486 8.02631 514.826 7.94858 513.869H6.30061C6.30838 515.665 7.73092 516.878 9.94635 517.025V518.052H11.0113ZM12.9547 513.908C12.9547 514.934 12.2473 515.572 11.0113 515.642V512.144C12.3483 512.424 12.9547 512.983 12.9547 513.908ZM8.22065 508.661C8.22065 507.767 8.95135 507.099 9.94635 507.044V510.294C8.82698 510.06 8.22065 509.501 8.22065 508.661ZM20.3472 517.196C23.0368 517.196 24.6148 514.934 24.6148 511.359C24.6148 507.806 23.029 505.56 20.3472 505.56C17.6731 505.56 16.064 507.814 16.064 511.366C16.064 514.942 17.6576 517.196 20.3472 517.196ZM20.3472 515.735C18.7459 515.735 17.8286 514.072 17.8286 511.366C17.8286 508.7 18.7614 507.021 20.3472 507.021C21.933 507.021 22.858 508.692 22.858 511.366C22.858 514.079 21.9485 515.735 20.3472 515.735Z" fill="white"/>
<path opacity="0.5" d="M3.84848 400.24H5.55086V389.023H3.83293L0.879025 391.122V392.832L3.80961 390.749H3.84848V400.24ZM12.306 400.45C14.7235 400.45 16.4181 398.856 16.4181 396.555C16.4181 394.379 14.8712 392.801 12.718 392.801C11.6219 392.801 10.7046 393.228 10.2149 393.936H10.1761L10.487 390.492H15.7652V389.023H9.08777L8.49699 395.366H10.0905C10.5259 394.628 11.3654 394.184 12.3371 394.184C13.7363 394.184 14.7157 395.195 14.7157 396.602C14.7157 398.009 13.7363 398.996 12.3215 398.996C11.07 398.996 10.1139 398.234 9.98949 397.123H8.32598C8.42703 399.082 10.0672 400.45 12.306 400.45ZM19.5508 395.568H19.5353V389.023H17.8562V400.24H19.5353V397.302L20.2349 396.61L23.01 400.24H24.9611L21.4398 395.584L24.829 392.062H22.8545L19.5508 395.568Z" fill="white"/>
<defs>
<linearGradient id="paint0_linear_15_97" x1="89.0375" y1="207.61" x2="89.0375" y2="491.246" gradientUnits="userSpaceOnUse">
<stop stop-color="#2C00FA"/>
<stop offset="1" stop-color="#1B0591"/>
</linearGradient>
<linearGradient id="paint1_linear_15_97" x1="89.0375" y1="311.415" x2="89.0375" y2="491.246" gradientUnits="userSpaceOnUse">
<stop stop-color="#007EC6"/>
<stop offset="1" stop-color="#0300A7"/>
</linearGradient>
<linearGradient id="paint2_linear_15_97" x1="365.803" y1="185.679" x2="365.803" y2="491.246" gradientUnits="userSpaceOnUse">
<stop stop-color="#2C00FA"/>
<stop offset="1" stop-color="#1B0591"/>
</linearGradient>
<linearGradient id="paint3_linear_15_97" x1="365.803" y1="296.794" x2="365.803" y2="491.246" gradientUnits="userSpaceOnUse">
<stop stop-color="#007EC6"/>
<stop offset="1" stop-color="#0300A7"/>
</linearGradient>
<linearGradient id="paint4_linear_15_97" x1="181.293" y1="140.356" x2="181.293" y2="491.246" gradientUnits="userSpaceOnUse">
<stop stop-color="#2C00FA"/>
<stop offset="1" stop-color="#1B0591"/>
</linearGradient>
<linearGradient id="paint5_linear_15_97" x1="181.293" y1="269.016" x2="181.293" y2="491.246" gradientUnits="userSpaceOnUse">
<stop stop-color="#007EC6"/>
<stop offset="1" stop-color="#0300A7"/>
</linearGradient>
<linearGradient id="paint6_linear_15_97" x1="458.059" y1="105.267" x2="458.059" y2="491.246" gradientUnits="userSpaceOnUse">
<stop stop-color="#2C00FA"/>
<stop offset="1" stop-color="#1B0591"/>
</linearGradient>
<linearGradient id="paint7_linear_15_97" x1="458.059" y1="247.085" x2="458.059" y2="491.246" gradientUnits="userSpaceOnUse">
<stop stop-color="#007EC6"/>
<stop offset="1" stop-color="#0300A7"/>
</linearGradient>
<linearGradient id="paint8_linear_15_97" x1="273.548" y1="269.016" x2="273.548" y2="491.246" gradientUnits="userSpaceOnUse">
<stop stop-color="#2C00FA"/>
<stop offset="1" stop-color="#1B0591"/>
</linearGradient>
<linearGradient id="paint9_linear_15_97" x1="273.548" y1="350.89" x2="273.548" y2="491.246" gradientUnits="userSpaceOnUse">
<stop stop-color="#007EC6"/>
<stop offset="1" stop-color="#0300A7"/>
</linearGradient>
<linearGradient id="paint10_linear_15_97" x1="550.314" y1="337.731" x2="550.314" y2="491.246" gradientUnits="userSpaceOnUse">
<stop stop-color="#2C00FA"/>
<stop offset="1" stop-color="#1B0591"/>
</linearGradient>
<linearGradient id="paint11_linear_15_97" x1="550.314" y1="393.289" x2="550.314" y2="491.246" gradientUnits="userSpaceOnUse">
<stop stop-color="#007EC6"/>
<stop offset="1" stop-color="#0300A7"/>
</linearGradient>
<linearGradient id="paint12_linear_15_97" x1="642.57" y1="207.61" x2="642.57" y2="491.246" gradientUnits="userSpaceOnUse">
<stop stop-color="#2C00FA"/>
<stop offset="1" stop-color="#1B0591"/>
</linearGradient>
<linearGradient id="paint13_linear_15_97" x1="642.57" y1="311.415" x2="642.57" y2="491.246" gradientUnits="userSpaceOnUse">
<stop stop-color="#007EC6"/>
<stop offset="1" stop-color="#0300A7"/>
</linearGradient>
</defs>
</svg>
